<svg width="30" height="30" viewBox="0 0 30 30" fill="none" xmlns="http://www.w3.org/2000/svg">
<path d="M15 0.587158C7.03979 0.587158 0.587158 7.03979 0.587158 15C0.587158 22.9603 7.03979 29.4129 15 29.4129C22.9603 29.4129 29.4129 22.9603 29.4129 15C29.4129 7.03979 22.9603 0.587158 15 0.587158Z" fill="url(#paint0_linear_64_354)"/>
<path d="M19.6085 4.65995C18.2008 4.03159 16.6411 3.68225 14.9999 3.68225C8.74926 3.68225 3.68213 8.74938 3.68213 15C3.68213 21.2507 8.74926 26.3178 14.9999 26.3178C21.2506 26.3178 26.3177 21.2507 26.3177 15C26.3177 12.31 25.3469 9.86483 23.8119 7.89713C22.207 5.83991 19.6085 4.65995 19.6085 4.65995Z" fill="#C5FF4A"/>
<path d="M8.66224 6.19972C8.7331 5.884 8.53461 5.57062 8.21889 5.49976C7.90317 5.4289 7.58979 5.6274 7.51893 5.94311C7.44807 6.25883 7.64656 6.57221 7.96228 6.64307C8.278 6.71394 8.59138 6.51544 8.66224 6.19972Z" fill="black"/>
<path d="M0 15C0 19.0068 1.56023 22.7736 4.3933 25.6067C7.22637 28.4398 10.9932 30 15 30C19.0068 30 22.7736 28.4398 25.6067 25.6067C28.4398 22.7736 30 19.0068 30 15C30 10.9932 28.4398 7.22637 25.6067 4.3933C22.7736 1.56023 19.0068 0 15 0C10.9932 0 7.22637 1.56023 4.3933 4.3933C1.56023 7.22637 0 10.9932 0 15ZM1.17416 15C1.17416 11.3069 2.61229 7.83486 5.22357 5.22357C7.83486 2.61229 11.3069 1.17416 15 1.17416C18.6931 1.17416 22.1651 2.61229 24.7764 5.22357C27.3878 7.83486 28.8258 11.3068 28.8258 15C28.8258 18.6932 27.3877 22.1651 24.7764 24.7764C22.1651 27.3878 18.6932 28.8258 15 28.8258C11.3068 28.8258 7.83486 27.3877 5.22357 24.7764C2.61229 22.1651 1.17416 18.6931 1.17416 15Z" fill="black"/>
<path d="M5.73129 7.52835C5.9349 7.27605 6.30451 7.23656 6.55687 7.44023C6.80918 7.64384 6.84867 8.01345 6.645 8.26582C5.11307 10.164 4.26937 12.5555 4.26937 15C4.26937 20.9169 9.0832 25.7307 15.0001 25.7307C20.917 25.7307 25.7308 20.9169 25.7308 15C25.7308 9.08308 20.917 4.26925 15.0001 4.26925C13.4785 4.26925 12.0085 4.58103 10.6309 5.19597C10.3348 5.32816 9.98766 5.19527 9.85553 4.89919C9.72334 4.60312 9.85623 4.25595 10.1523 4.12382C11.6815 3.44121 13.3126 3.09509 15.0001 3.09509C21.5645 3.09509 26.905 8.43562 26.905 15C26.905 21.5644 21.5645 26.9049 15.0001 26.9049C8.43574 26.9049 3.09521 21.5644 3.09521 15C3.09521 12.2881 4.03137 9.63468 5.73129 7.52835Z" fill="black"/>
<path d="M15.0002 5.50012C14.9111 5.50013 14.8232 5.5204 14.7431 5.5594C14.663 5.59841 14.5929 5.65512 14.538 5.72524L9.54784 12.097C9.45595 12.2144 9.41229 12.3625 9.42573 12.511C9.40733 12.7284 9.51069 12.9474 9.71096 13.0661L14.7011 16.0211C14.8829 16.129 15.1176 16.129 15.2993 16.0211L20.2895 13.0661C20.49 12.9474 20.5933 12.728 20.5747 12.5104C20.5879 12.3621 20.5442 12.2144 20.4525 12.0971L15.4623 5.72524C15.4074 5.65512 15.3373 5.59841 15.2572 5.5594C15.1771 5.5204 15.0892 5.50013 15.0002 5.50012ZM15.5873 11.5639L18.7076 12.6382L15.5873 14.486V11.5639ZM14.4131 14.486L11.2928 12.6382L14.4131 11.5639V14.486ZM14.4131 7.78897V10.3221L11.6968 11.2574L14.4131 7.78897ZM15.5873 10.3221V7.78909L18.3035 11.2573L15.5873 10.3221Z" fill="black"/>
<path d="M20.5762 15.4407C20.5533 15.0043 20.0598 14.7445 19.686 14.9686L15 17.7435L10.313 14.9681C10.0989 14.8388 9.81673 14.8631 9.62718 15.0257C9.41343 15.209 9.36146 15.5319 9.50648 15.7732L14.4943 24.2221C14.7174 24.5998 15.2824 24.5999 15.5054 24.2221L20.4924 15.7747C20.5528 15.6741 20.5819 15.5579 20.5762 15.4407ZM14.4129 21.7744L11.6773 17.1405L14.4129 18.7604L14.4129 21.7744ZM15.587 18.7605L18.3226 17.1406L15.587 21.7743V18.7605Z" fill="black"/>
<defs>
<linearGradient id="paint0_linear_64_354" x1="-0.543265" y1="-1.75911" x2="31.8324" y2="-1.09969" gradientUnits="userSpaceOnUse">
<stop stop-color="#C6F1F7"/>
<stop offset="0.364583" stop-color="#F983E9"/>
<stop offset="0.739583" stop-color="#B877FF"/>
<stop offset="1" stop-color="#C2E9CD"/>
</linearGradient>
</defs>
</svg>
