<svg width="16" height="16" viewBox="0 0 16 16" fill="none" xmlns="http://www.w3.org/2000/svg">
<path d="M7.65335 0.00729656C7.08856 0.029274 6.50518 0.115493 5.95392 0.26088C3.32107 0.957392 1.21243 2.95732 0.377087 5.55064C0.118368 6.35535 0 7.12118 0 8.00196C0 8.88274 0.118368 9.64856 0.377087 10.4533C1.16677 12.9046 3.09617 14.8335 5.54809 15.623C6.35299 15.8817 7.119 16 8 16C8.881 16 9.64701 15.8817 10.4519 15.623C12.9038 14.8335 14.8332 12.9046 15.6229 10.4533C15.8816 9.64856 16 8.88274 16 8.00196C16 7.12118 15.8816 6.35535 15.6229 5.55064C14.6269 2.46199 11.8453 0.264262 8.62566 0.0242023C8.2993 -0.00115585 8.00169 -0.00622749 7.65335 0.00729656ZM7.81399 3.28191V4.81694L7.68379 4.83554C7.47749 4.86597 7.26443 4.93528 7.06151 5.03502C6.4071 5.35961 5.96068 6.00033 5.88797 6.71882C5.87952 6.80335 5.86599 6.87774 5.85923 6.88619C5.84063 6.90478 4.25787 7.56241 4.24942 7.55565C4.24773 7.55227 4.43204 7.24459 4.66033 6.87266C4.88861 6.50074 5.07461 6.18968 5.07461 6.18291C5.07461 6.17446 4.67216 5.76366 4.1784 5.2717C3.68632 4.77975 3.28218 4.36894 3.28218 4.3588C3.28218 4.35035 3.52399 4.10014 3.81822 3.80599L4.35595 3.26839L5.13549 4.04774L5.91503 4.82708L6.86028 3.28698C7.37941 2.44001 7.80723 1.74688 7.80892 1.74688C7.8123 1.74688 7.81399 2.43832 7.81399 3.28191ZM9.15155 3.29206L10.0884 4.82201L10.8662 4.04436L11.6441 3.26839L12.1902 3.81275L12.7347 4.3588L11.8267 5.26663L10.9203 6.17277L11.3447 6.86421C11.5764 7.2429 11.7658 7.55565 11.7641 7.55903C11.7607 7.56072 11.3955 7.41195 10.9491 7.22599L10.1391 6.88957L10.1205 6.71544C10.0123 5.76027 9.30543 5.00459 8.36863 4.84399L8.20292 4.81525V3.29037C8.20292 2.45016 8.2063 1.76379 8.20968 1.76379C8.21306 1.76379 8.63581 2.45185 9.15155 3.29206ZM8.34665 5.66898C8.68654 5.7738 8.91651 6.03415 8.94187 6.34183L8.95202 6.46355H8.69837H8.44473L8.43458 6.40438C8.41091 6.25561 8.29423 6.16601 8.09639 6.14234C7.81568 6.10853 7.56035 6.2218 7.56035 6.38071C7.56035 6.49398 7.65504 6.55146 8.07778 6.69177C8.51744 6.83716 8.7119 6.94536 8.8438 7.11779C8.98246 7.29699 9.00444 7.57425 8.89791 7.79064C8.75248 8.0848 8.43289 8.25385 8.02029 8.25554C7.61108 8.25554 7.28979 8.08649 7.14606 7.79233C7.11393 7.7264 7.07842 7.63173 7.06996 7.58101C7.03953 7.41364 7.01754 7.42717 7.31516 7.42717H7.57726V7.47619C7.57726 7.53536 7.63644 7.62665 7.70746 7.67399C7.81907 7.74837 8.05918 7.76528 8.23843 7.71287C8.33312 7.68413 8.45656 7.56748 8.45656 7.50662C8.45656 7.39505 8.32298 7.31559 7.89854 7.17527C7.52991 7.05186 7.37434 6.97241 7.23737 6.83716C7.09364 6.69346 7.04798 6.58527 7.04798 6.37902C7.04629 6.20489 7.08518 6.09332 7.1951 5.95469C7.31685 5.79916 7.53667 5.67744 7.77003 5.63517C7.91038 5.60981 8.21137 5.62841 8.34665 5.66898ZM5.93701 7.439C6.10611 8.15073 6.64891 8.73566 7.34898 8.96389C7.43352 8.99094 7.56204 9.02137 7.63644 9.0332C7.71084 9.04503 7.78186 9.05687 7.7937 9.06025C7.80892 9.06532 7.81399 9.19211 7.81399 9.6249V10.1845L7.77341 10.1625C7.66688 10.105 4.21391 8.00872 4.21222 8.00196C4.21222 7.99181 5.89136 7.29192 5.89981 7.30037C5.90319 7.30207 5.91841 7.36462 5.93701 7.439ZM10.9575 7.64356C11.7692 7.98167 11.8047 7.99858 11.7675 8.02224C11.7455 8.03577 10.9524 8.51758 10.0038 9.09237C9.05517 9.66716 8.2621 10.149 8.24181 10.1625L8.20292 10.1862V9.62151V9.05687L8.34327 9.03827C8.85225 8.96896 9.37645 8.65282 9.69943 8.22342C9.88375 7.97998 10.0528 7.60806 10.0884 7.37138C10.0951 7.32742 10.1019 7.29192 10.1053 7.29192C10.107 7.29192 10.4908 7.45084 10.9575 7.64356ZM6.10104 10.2707L7.8123 11.307L7.81399 12.7423C7.81399 13.5318 7.81061 14.1742 7.80723 14.1708C7.80554 14.1674 7.50285 13.7414 7.1376 13.2258C6.77066 12.7102 6.44261 12.247 6.40541 12.1962L6.33946 12.1066L5.57176 12.8725L4.80406 13.64L4.26295 13.099L3.72183 12.558L4.57916 11.7009C5.40774 10.8725 5.43648 10.8404 5.4145 10.8049C5.39083 10.7677 4.42021 9.39498 4.29846 9.2293L4.23758 9.14478L4.31368 9.19042C4.35595 9.21578 5.15916 9.70097 6.10104 10.2707ZM11.1621 9.99851L10.5703 10.8336L11.4276 11.6908L12.2866 12.5496L11.7404 13.0939L11.1959 13.64L10.4299 12.8742L9.66561 12.11L8.9554 13.1091C8.56479 13.6586 8.23674 14.1218 8.2249 14.137C8.20799 14.159 8.20461 13.8614 8.20292 12.7338V11.3053L9.97506 10.2318C10.9491 9.64011 11.7472 9.1583 11.7506 9.15999C11.754 9.16337 11.4885 9.54037 11.1621 9.99851Z" fill="#EFEFE5"/>
</svg>
