<svg width="18" height="18" viewBox="0 0 18 18" fill="none" xmlns="http://www.w3.org/2000/svg">
<path d="M17 9C17 4.58172 13.4183 1 9 1C4.58172 1 1 4.58172 1 9C1 13.4183 4.58172 17 9 17C13.4183 17 17 13.4183 17 9Z" fill="#DADADA"/>
<path d="M17 9C17 4.58172 13.4183 1 9 1C4.58172 1 1 4.58172 1 9C1 13.4183 4.58172 17 9 17C13.4183 17 17 13.4183 17 9Z" stroke="black" stroke-width="1.2"/>
<mask id="mask0_46_1187" style="mask-type:luminance" maskUnits="userSpaceOnUse" x="3" y="3" width="12" height="12">
<path d="M14.6139 3.38586H3.38586V14.6139H14.6139V3.38586Z" fill="white"/>
</mask>
<g mask="url(#mask0_46_1187)">
<path d="M8.99834 3.38593L8.92297 3.6418V11.066L8.99834 11.1412L12.4444 9.1041L8.99834 3.38593Z" fill="#343434"/>
<path d="M8.99749 3.38593L5.55127 9.1041L8.99749 11.1412V7.53764V3.38593Z" fill="#8C8C8C"/>
<path d="M8.99827 11.7925L8.95581 11.8443V14.489L8.99827 14.6129L12.4465 9.75653L8.99827 11.7925Z" fill="#3C3C3B"/>
<path d="M8.99773 14.6129V11.7925L5.55151 9.75653L8.99773 14.6129Z" fill="#8C8C8C"/>
<path d="M8.99963 11.1424L12.4458 9.10535L8.99963 7.53894V11.1424Z" fill="#141414"/>
<path d="M5.55151 9.10535L8.99773 11.1424V7.53894L5.55151 9.10535Z" fill="#393939"/>
</g>
</svg>
