<svg width="16" height="16" viewBox="0 0 16 16" fill="none" xmlns="http://www.w3.org/2000/svg">
<path fill-rule="evenodd" clip-rule="evenodd" d="M16 8C16 12.4182 12.4182 16 8 16C3.58172 16 0 12.4182 0 8C0 3.58172 3.58172 0 8 0C12.4182 0 16 3.58172 16 8ZM11.4281 14.2565L14.2565 11.4281L12.9113 10.0829C12.3718 11.3535 11.3535 12.3718 10.0829 12.9113L11.4281 14.2565ZM6.28863 13.0528C4.96882 12.606 3.88077 11.6565 3.25232 10.4323L2.16176 11.5229L4.99018 14.3513L6.28863 13.0528ZM3.0887 5.91714C3.62826 4.6465 4.6465 3.62826 5.91714 3.0887L4.82842 2L2 4.82842L3.0887 5.91714ZM10.4323 3.25232L11.5898 2.09476L14.4182 4.92318L13.0528 6.28863C12.606 4.96882 11.6565 3.88077 10.4323 3.25232Z" fill="#EFEFE5"/>
<mask id="mask0_46_1209" style="mask-type:luminance" maskUnits="userSpaceOnUse" x="4" y="4" width="8" height="8">
<path d="M12 4H4V12H12V4Z" fill="white"/>
</mask>
<g mask="url(#mask0_46_1209)">
<path d="M8.00047 4L7.94678 4.18231V9.472L8.00047 9.5256L10.4558 8.07416L8.00047 4Z" fill="#B7B7B7"/>
<path d="M8.0007 4L5.54529 8.07416L8.0007 9.5256V6.9581V4Z" fill="#DADADA"/>
<path d="M8.00197 9.99031L7.97168 10.0272V11.9114L8.00197 11.9998L10.4588 8.53967L8.00197 9.99031Z" fill="#939090"/>
<path d="M8.00057 11.9998V9.99031L5.54517 8.53967L8.00057 11.9998Z" fill="#DADADA"/>
<path d="M8.00146 9.52552L10.4568 8.07408L8.00146 6.95801V9.52552Z" fill="#939090"/>
<path d="M5.54517 8.07408L8.00057 9.52552V6.95801L5.54517 8.07408Z" fill="#B1B1B1"/>
</g>
</svg>
