<svg width="114" height="32" viewBox="0 0 114 32" fill="none" xmlns="http://www.w3.org/2000/svg">
<path fill-rule="evenodd" clip-rule="evenodd" d="M28.8461 0.145222L28.7021 0.290445V4.90126V9.51205L28.8461 9.6573L28.99 9.8025H30.6816H32.3732L32.5171 9.6573L32.6611 9.51205V4.90126V0.290445L32.5171 0.145222L32.3732 0H30.6816H28.99L28.8461 0.145222ZM8.1874 8.0284L7.04771 8.294L6.12503 8.73635C5.61757 8.9797 4.88874 9.3936 4.50544 9.6563L3.80854 10.1339L2.95244 11.0431L2.09646 11.9524L1.60579 12.7855C1.08008 13.6781 0.588929 14.8156 0.307121 15.7929L0.132686 16.3981L0.0663428 18.2496L0 20.1013L0.209226 20.9725C0.488514 22.1356 1.17822 23.7225 1.82377 24.6878L2.34995 25.4744L3.31918 26.4522L4.28842 27.4298L5.05177 27.9484C5.96042 28.5656 6.96038 29.0357 8.1874 29.4223L9.08718 29.7057H11.0667H13.0462L13.9459 29.4223C16.4101 28.6459 18.0588 27.5199 19.6073 25.556L20.3062 24.6695L20.7908 23.6597C21.2798 22.6403 21.3737 22.3855 21.7047 21.1782L21.8871 20.5126L21.9476 17.2451L22.008 13.9776L22.1306 13.8264L22.2532 13.6751H24.4938H26.7346L26.8786 13.5299L27.0226 13.3847V10.7101V8.03565L26.8786 7.8904L26.7346 7.7452L18.0309 7.7539L9.32713 7.7626L8.1874 8.0284ZM15.9614 13.8203L16.1053 13.9656V16.5179V19.0701L15.9264 19.7632C15.828 20.1443 15.6075 20.7348 15.4364 21.0754L15.1255 21.6945L14.5681 22.2957L14.0107 22.8967L13.4085 23.2054C11.797 24.0313 10.3357 24.0317 8.72727 23.2063L8.12742 22.8985L7.43339 22.1639L6.73936 21.4294L6.35368 20.608L5.96796 19.7866V18.5763V17.3662L6.36855 16.5043L6.76915 15.6424L7.38828 15.0273L8.00747 14.4122L8.57971 14.158C8.89436 14.0181 9.38026 13.8582 9.65942 13.8027L10.1669 13.7016L12.9922 13.6884L15.8174 13.6751L15.9614 13.8203ZM37.004 16.6038L36.86 16.749V17.5477V18.3465L37.004 18.4916L37.1479 18.6369H38.1197H39.0914L39.2354 18.4916L39.3794 18.3465V17.5477V16.749L39.2354 16.6038L39.0914 16.4585H38.1197H37.1479L37.004 16.6038ZM91.1384 16.7367C91.1023 16.8326 91.0889 17.204 91.1092 17.5621L91.1459 18.2133H91.4457H91.7456V17.4267V16.6401L91.4755 16.6014L91.2049 16.5626L91.1384 16.7367ZM30.3478 19.7309C29.0546 20.056 28.2639 20.8521 28.0402 22.0541L27.9583 22.4951L28.1542 23.09L28.35 23.6849L28.6161 23.9307C29.0661 24.3465 29.7857 24.6442 31.1588 24.9828C31.8832 25.1616 32.6576 25.3947 32.8797 25.5011L33.2834 25.6943L33.4038 25.961L33.5243 26.2276L33.3347 26.5972L33.1452 26.9669L32.7089 27.1122L32.2728 27.2574L31.7488 27.1978L31.2249 27.1383L30.9229 26.9387C30.7567 26.8288 30.4853 26.5226 30.3198 26.2581L30.0188 25.777H29.0648H28.1107L27.9821 26.0195L27.8534 26.262L27.9761 26.7218L28.0988 27.1815L28.5325 27.6926C28.9973 28.2403 29.3246 28.4478 30.1943 28.7456L30.7453 28.9343L32.0331 28.9314L33.3209 28.9286L33.9606 28.6908C34.3124 28.5601 34.7855 28.3104 35.012 28.1361L35.4238 27.8193L35.7221 27.2257L36.0202 26.6321V25.9566V25.2809L35.851 24.9541C35.639 24.5447 35.1107 24.0447 34.6406 23.8085C34.4426 23.709 33.6177 23.4579 32.8076 23.2506L31.3344 22.8735L31.0427 22.6806C30.8822 22.5746 30.7189 22.3858 30.6797 22.2612L30.6083 22.0346L30.7383 21.7894L30.8685 21.5443L31.1705 21.4678C31.3366 21.4256 31.7757 21.4167 32.1463 21.4477L32.8202 21.504L33.2505 22.0086L33.6808 22.5133L34.6131 22.5113L35.5455 22.5095L35.674 22.225L35.8025 21.9405L35.5045 21.3475C35.1324 20.6076 34.934 20.4265 34.0375 20.0079L33.3209 19.6733L32.0613 19.6451L30.8016 19.6168L30.3478 19.7309ZM43.0214 19.737C42.8142 19.7975 42.3823 20.0287 42.0616 20.2507L41.4788 20.6542L41.0408 21.4094L40.6028 22.1646L40.4546 22.957L40.3063 23.7493L40.3802 24.631L40.4542 25.5126L40.6975 26.1687L40.9409 26.8249L41.3629 27.3223L41.7851 27.8197L42.4682 28.1457L43.1512 28.4717L44.0807 28.4778L45.0102 28.4838L45.7088 28.1204L46.4074 27.757L46.5524 27.8057L46.6975 27.8545V28.3508V28.8471L46.4503 29.362L46.2032 29.8771L45.6586 30.143L45.1141 30.4088L44.4687 30.2631L43.8232 30.1175L43.3761 29.6415L42.929 29.1655H41.9486H40.9684L40.8231 29.3421L40.6778 29.5187L40.7609 29.9002L40.8439 30.2819L41.2741 30.7622L41.7044 31.2425L42.4314 31.6212L43.1584 32L44.718 31.9959L46.2776 31.9919L46.8175 31.7418C47.1144 31.6044 47.5856 31.323 47.8645 31.1164L48.3719 30.7411L48.7043 30.1045L49.0368 29.4681L49.0735 24.8293L49.1101 20.1904L48.9687 20.0188L48.8275 19.847H47.9202H47.0129L46.7432 20.1026L46.4736 20.3582L45.7265 19.9815L44.9796 19.605L44.1889 19.6159C43.7541 19.622 43.2287 19.6764 43.0214 19.737ZM54.3616 19.7721C54.1232 19.858 53.7638 20.0462 53.5636 20.1903C53.0991 20.5239 53.0069 20.5192 52.767 20.1496L52.5702 19.847H51.6374H50.7046L50.5603 19.9923L50.4166 20.1375V24.2799V28.4221L50.6049 28.6124L50.7938 28.8025H51.7207H52.6481L52.7918 28.6572L52.936 28.512L52.9385 25.8435L52.941 23.1751L53.1616 22.691C53.2825 22.4247 53.4907 22.1093 53.624 21.99L53.8659 21.7731L54.2986 21.7022L54.7313 21.6313L55.0991 21.785L55.4664 21.9385L55.6647 22.3148L55.8629 22.691L55.913 25.5705L55.9626 28.4501L56.1375 28.6262L56.312 28.8025H57.1849H58.0573L58.256 28.5811L58.4543 28.3599V25.8128C58.4543 24.412 58.4875 23.1002 58.5276 22.8976L58.6005 22.5293L58.9217 22.1411L59.2429 21.7528L59.8516 21.6938L60.4597 21.6348L60.8667 22.0016L61.2736 22.3682L61.3098 25.3708L61.346 28.3736L61.5383 28.588L61.7306 28.8025H62.6481H63.5651L63.7093 28.6572L63.8531 28.512L63.8506 25.1779L63.8476 21.8438L63.6032 21.2993C63.2959 20.6159 62.9648 20.2548 62.3532 19.9372L61.8734 19.6878L61.0203 19.6315L60.1668 19.5754L59.7252 19.7223C59.4823 19.8032 59.0426 20.0549 58.7482 20.2817C58.1222 20.7639 57.972 20.7851 57.6632 20.4349C57.5373 20.2924 57.1646 20.0479 56.8349 19.8916L56.2352 19.6075L55.515 19.6115L54.7953 19.6157L54.3616 19.7721ZM67.632 19.7684C67.3019 19.8548 66.8082 20.0424 66.5341 20.1853L66.0355 20.4452L65.6608 20.9025L65.286 21.3598L65.1517 21.8097L65.0169 22.2598L65.173 22.4496L65.3292 22.6394L66.3567 22.6047L67.3832 22.57L67.6657 22.1464C67.8214 21.9135 68.0662 21.6567 68.21 21.5758L68.4717 21.4289L69.0962 21.4245L69.7203 21.4203L70.0176 21.5571L70.315 21.6937L70.4499 22.0213L70.5842 22.3487L70.4494 22.6474C70.263 23.0592 69.9329 23.2408 69.1448 23.3638C68.7745 23.4217 68.0999 23.5263 67.6449 23.5962L66.8181 23.7236L66.2699 23.9683C65.5864 24.2731 65.3287 24.5053 65.0402 25.0763L64.8127 25.5252V26.3216V27.1178L65.0402 27.5669C65.3133 28.107 65.5512 28.3294 66.2174 28.6672L66.7225 28.9235L67.8372 28.9205L68.9515 28.9178L69.6717 28.6186C70.5406 28.2575 70.5014 28.2591 70.9128 28.566L71.2449 28.8134L72.1941 28.7778L73.1433 28.7419L73.1057 25.1132L73.0675 21.4844L72.9099 21.1801C72.6645 20.7066 72.1272 20.2485 71.4709 19.9531L70.8712 19.6829L69.5517 19.6472L68.2318 19.6112L67.632 19.7684ZM79.1493 20.0137L78.549 20.299L78.2586 20.6177L77.9676 20.9363H77.7485H77.5295V20.5974V20.2586L77.3857 20.1133C77.3064 20.0335 77.1503 19.9681 77.0383 19.9681H76.8355L76.7627 20.1595C76.7225 20.2648 76.6898 22.8471 76.6898 25.898C76.6898 28.9489 76.7225 31.5311 76.7627 31.6364L76.8355 31.8279H77.0383C77.1503 31.8279 77.3064 31.7625 77.3857 31.6827L77.5295 31.5375V29.7535V27.9696L77.6613 27.8873L77.7936 27.8051L78.1114 28.0652C78.2863 28.2083 78.6992 28.4593 79.0293 28.6232L79.6291 28.921H80.6487H81.6683L82.2759 28.6357C82.6105 28.4786 83.075 28.1811 83.3079 27.9744L83.7322 27.5988L84.0554 26.8721L84.3786 26.1455L84.4797 25.2381L84.5808 24.3307L84.4906 23.5019L84.4004 22.6731L84.0678 21.9261L83.7352 21.1789L83.2048 20.6854L82.674 20.1919L82.1709 19.9615L81.6683 19.7313L80.7086 19.7299L79.749 19.7285L79.1493 20.0137ZM95.825 19.9537C95.5608 20.0759 95.2421 20.2926 95.1161 20.4351C94.9907 20.5776 94.8183 20.6942 94.733 20.6942H94.5784L94.4202 20.3614L94.2621 20.0286H93.9637H93.6653L93.6316 24.0827C93.6133 26.3125 93.6277 28.2593 93.6643 28.4091L93.7298 28.6814H93.9434C94.0609 28.6814 94.222 28.6161 94.3013 28.5362L94.445 28.391L94.4465 25.4805L94.4475 22.57L94.7305 21.9649C95.0631 21.2533 95.4136 20.9004 96.0564 20.6294L96.5248 20.4319H97.0443H97.5637L98.0138 20.6539L98.4639 20.8757L98.734 21.4157L99.0042 21.9557V25.1826V28.4097L99.194 28.5689L99.3838 28.7279L99.5841 28.601L99.7838 28.474L99.8438 25.4615L99.9038 22.4489L100.154 21.9044L100.403 21.3598L100.834 20.9786L101.264 20.5974L101.886 20.4629L102.508 20.3285L102.96 20.4512C103.208 20.5187 103.56 20.6919 103.742 20.8359L104.072 21.0979L104.264 21.5314L104.455 21.9649L104.519 25.2929L104.582 28.6209L104.848 28.659L105.114 28.6971L105.187 28.4035C105.227 28.2419 105.243 26.6455 105.221 24.8558L105.183 21.6019L104.924 21.1178C104.6 20.5101 104.224 20.153 103.655 19.9134L103.21 19.726L102.397 19.7287L101.583 19.7313L101.089 19.9579L100.594 20.1845L100.249 20.6208C100.059 20.8608 99.8398 21.0572 99.762 21.0572C99.6837 21.0572 99.5038 20.8924 99.3615 20.6908L99.1028 20.3245L98.5174 20.0252L97.932 19.726L97.1186 19.7287L96.3048 19.7313L95.825 19.9537ZM108.508 20.038L107.887 20.3501L107.351 20.9516L106.815 21.553L106.545 22.243L106.276 22.9331L106.27 24.4457L106.263 25.9585L106.579 26.6387L106.894 27.3188L107.358 27.8378L107.822 28.357L108.455 28.6402L109.088 28.9235H110.095H111.101L111.681 28.6742L112.261 28.4249L112.721 27.9783L113.181 27.5317L113.471 26.9609L113.76 26.3901V26.0751V25.7602L113.495 25.7987L113.231 25.8375L112.793 26.6241L112.354 27.4107L111.827 27.7418L111.301 28.073L110.627 28.2091L109.954 28.3451L109.278 28.147L108.603 27.9489L108.174 27.5697L107.746 27.1905L107.444 26.5882L107.141 25.9858L107.074 25.3249L107.006 24.6639L107.174 24.5567L107.342 24.4496L110.527 24.4476L113.712 24.4457L113.856 24.3006L114 24.1553V23.7082V23.2611L113.759 22.4919L113.517 21.7229L113.185 21.2423C113.003 20.978 112.625 20.5854 112.344 20.3697L111.834 19.9778L111.388 19.8526L110.941 19.7274L110.035 19.7267L109.129 19.726L108.508 20.038ZM37.004 19.9923L36.86 20.1375V24.2799V28.4221L37.0485 28.6124L37.2371 28.8025H38.1096H38.9823L39.1808 28.5811L39.3794 28.3599V24.2486V20.1375L39.2354 19.9923L39.0914 19.847H38.1197H37.1479L37.004 19.9923ZM88.0366 20.0877C87.7124 20.2172 87.2395 20.4913 86.9863 20.6968L86.5253 21.0703L86.4063 20.9961L86.2874 20.9219V20.6364C86.2874 20.4794 86.2546 20.2648 86.2145 20.1595L86.1416 19.9681H85.9384C85.8269 19.9681 85.6708 20.0335 85.5914 20.1133L85.4477 20.2586V24.3342V28.4097L85.6375 28.5689L85.8274 28.7279L86.0276 28.601L86.2274 28.4741L86.2889 25.7035L86.3503 22.9331L86.5644 22.4489C86.9853 21.5005 87.763 20.8897 88.8668 20.6418L89.4666 20.507V20.2073V19.9076L89.0467 19.8801L88.6264 19.8525L88.0366 20.0877ZM91.1439 20.1116C91.1102 20.1999 91.0973 22.1507 91.1146 24.4465L91.1459 28.6209L91.4115 28.659L91.6772 28.6971L91.7451 28.417C91.7823 28.2629 91.7977 26.3125 91.7793 24.0827L91.7456 20.0286L91.4755 19.9898L91.2049 19.9512L91.1439 20.1116ZM81.872 20.6406C82.0901 20.7513 82.4712 21.0379 82.7191 21.2774L83.1696 21.7129L83.4214 22.3835L83.6732 23.0541L83.7367 24.038L83.8001 25.0221L83.5315 25.9135L83.2633 26.8048L82.7057 27.3667L82.1486 27.9284L81.4968 28.1234C80.6859 28.3659 80.4935 28.3661 79.6806 28.125L79.0293 27.9317L78.4816 27.3623L77.9344 26.7929L77.7317 26.0653L77.5295 25.3375V24.3578V23.3782L77.758 22.6375L77.9865 21.897L78.3057 21.4746C78.7091 20.9415 79.0854 20.6925 79.7907 20.4923L80.3488 20.334L80.9124 20.3866L81.4754 20.4392L81.872 20.6406ZM111.442 20.6764C112.262 21.1015 112.868 21.979 113.093 23.0651L113.171 23.439L112.993 23.5877L112.816 23.7365L110.079 23.7241L107.343 23.7117L107.183 23.5509L107.024 23.3902L107.163 22.859C107.24 22.5669 107.458 22.0829 107.648 21.7833L107.995 21.2388L108.411 20.9559C108.64 20.8002 109.06 20.5966 109.344 20.5033L109.861 20.3337L110.423 20.3862L110.984 20.4389L111.442 20.6764ZM45.5807 21.777L46.0836 22.0072L46.3504 22.5306L46.6172 23.0541L46.6659 23.9617L46.7146 24.8694L46.436 25.4068L46.1576 25.9443L45.8326 26.1831L45.5078 26.4219L44.8729 26.4732L44.2381 26.5247L43.8286 26.2416L43.4192 25.9585L43.179 25.4892L42.939 25.0199L42.9287 24.0975L42.9185 23.1751L43.2056 22.5865L43.4929 21.9979L43.9855 21.7724C44.608 21.4871 44.9501 21.4881 45.5807 21.777ZM70.4529 24.871L70.6035 25.0543L70.5282 25.6075L70.4533 26.1606L70.1946 26.5271L69.9359 26.8935L69.5374 27.0613L69.1393 27.2292H68.6496H68.1599L67.8209 27.0522C67.4402 26.8537 67.3321 26.6485 67.3321 26.1246V25.7659L67.6176 25.4782L67.9026 25.1905L68.3671 25.0686C68.7934 24.9567 69.8427 24.7444 70.1668 24.7045C70.2412 24.6953 70.3701 24.7703 70.4529 24.871Z" fill="black"/>
</svg>
