<svg width="48" height="48" viewBox="0 0 48 48" fill="none" xmlns="http://www.w3.org/2000/svg">
<path d="M24 48C37.2548 48 48 37.2548 48 24C48 10.7452 37.2548 0 24 0C10.7452 0 0 10.7452 0 24C0 37.2548 10.7452 48 24 48Z" fill="#FF0420"/>
<path d="M16.9968 30.3647C15.7481 30.4179 14.5158 30.064 13.4857 29.3563C13.0407 29.0163 12.6851 28.5731 12.4499 28.0649C12.2146 27.5568 12.1067 26.9989 12.1354 26.4397C12.1409 26.1138 12.171 25.7888 12.2255 25.4675C12.3816 24.6019 12.6036 23.5636 12.8916 22.3526C13.7079 19.0516 15.8144 17.4011 19.2111 17.4011C20.0624 17.3872 20.9078 17.5465 21.6957 17.8693C22.3951 18.1434 22.9968 18.6198 23.4241 19.2377C23.8549 19.8743 24.0751 20.6301 24.0536 21.3985C24.0474 21.7183 24.0173 22.0373 23.9635 22.3526C23.7833 23.4209 23.5673 24.4592 23.3155 25.4675C22.8958 27.1118 22.1696 28.3421 21.137 29.1584C20.1054 29.9626 18.7253 30.3647 16.9968 30.3647ZM17.249 27.7719C17.8726 27.7891 18.481 27.5778 18.9597 27.1778C19.4887 26.698 19.8486 26.0602 19.9858 25.3593C20.262 24.2314 20.4718 23.2471 20.6153 22.4065C20.6636 22.1512 20.6877 21.892 20.6873 21.6322C20.6873 20.5397 20.1172 19.9936 18.977 19.9939C18.3483 19.9788 17.7351 20.1896 17.2486 20.588C16.7293 21.0728 16.3764 21.7093 16.2402 22.4065C16.0241 23.2107 15.8081 24.1949 15.5922 25.3593C15.5433 25.6084 15.5192 25.8616 15.5202 26.1155C15.5202 27.2197 16.0965 27.7719 17.249 27.7719Z" fill="#F3F3F3"/>
<path d="M24.8831 30.1849C24.8259 30.1883 24.7687 30.1787 24.7157 30.1569C24.6627 30.1351 24.6153 30.1017 24.577 30.059C24.5171 29.9623 24.4977 29.8458 24.5231 29.7348L27.0077 18.0315C27.0297 17.9024 27.1 17.7864 27.2044 17.7073C27.3009 17.6277 27.4216 17.5833 27.5467 17.5814H32.3361C33.4637 17.5261 34.5814 17.8149 35.5411 18.4096C35.9356 18.668 36.256 19.0248 36.4707 19.4447C36.6854 19.8647 36.787 20.3333 36.7655 20.8045C36.7637 21.1196 36.7274 21.4336 36.6573 21.7409C36.4587 22.954 35.8092 24.0473 34.8388 24.8019C33.9386 25.4621 32.7022 25.7922 31.1298 25.7922H28.6995L27.8713 29.7352C27.8493 29.8644 27.7789 29.9803 27.6746 30.0594C27.5782 30.139 27.4576 30.1834 27.3327 30.1853L24.8831 30.1849ZM31.2569 23.3068C31.7286 23.3172 32.1907 23.1717 32.5714 22.8929C32.963 22.6052 33.2328 22.1813 33.3275 21.7047C33.361 21.5265 33.379 21.3458 33.3814 21.1645C33.3917 21.018 33.3696 20.8711 33.3167 20.7342C33.2638 20.5972 33.1814 20.4736 33.0753 20.3721C32.7749 20.1502 32.4029 20.0476 32.0312 20.0841H29.8708L29.1866 23.3068H31.2569Z" fill="#F3F3F3"/>
</svg>
