<svg width="19" height="18" viewBox="0 0 19 18" fill="none" xmlns="http://www.w3.org/2000/svg">
<path d="M1 4.77771L4.77778 0.999932L8.55556 4.77771" fill="url(#paint0_linear_54_4845)"/>
<path d="M1 4.77771L4.77778 0.999932L8.55556 4.77771" stroke="#0B0B15" stroke-width="2" stroke-linecap="round" stroke-linejoin="round"/>
<path d="M4.77734 0.999973L4.77734 16.1111L4.77734 0.999973Z" fill="url(#paint1_linear_54_4845)"/>
<path d="M4.77734 0.999973L4.77734 16.1111" stroke="#0B0B15" stroke-width="2" stroke-linecap="round" stroke-linejoin="round"/>
<path d="M17.9999 12.3333L14.2221 16.1111L10.4443 12.3333" fill="url(#paint2_linear_54_4845)"/>
<path d="M17.9999 12.3333L14.2221 16.1111L10.4443 12.3333" stroke="#0B0B15" stroke-width="2" stroke-linecap="round" stroke-linejoin="round"/>
<path d="M14.2227 16.1111L14.2227 0.999973L14.2227 16.1111Z" fill="url(#paint3_linear_54_4845)"/>
<path d="M14.2227 16.1111L14.2227 0.999973" stroke="#0B0B15" stroke-width="2" stroke-linecap="round" stroke-linejoin="round"/>
<defs>
<linearGradient id="paint0_linear_54_4845" x1="0.385018" y1="4.92586" x2="0.428241" y2="0.681522" gradientUnits="userSpaceOnUse">
<stop stop-color="#C6F1F7"/>
<stop offset="0.364583" stop-color="#F983E9"/>
<stop offset="0.739583" stop-color="#B877FF"/>
<stop offset="1" stop-color="#C2E9CD"/>
</linearGradient>
<linearGradient id="paint1_linear_54_4845" x1="4.69595" y1="16.7037" x2="9.46955" y2="1.19378" gradientUnits="userSpaceOnUse">
<stop stop-color="#C6F1F7"/>
<stop offset="0.364583" stop-color="#F983E9"/>
<stop offset="0.739583" stop-color="#B877FF"/>
<stop offset="1" stop-color="#C2E9CD"/>
</linearGradient>
<linearGradient id="paint2_linear_54_4845" x1="9.82935" y1="16.2592" x2="9.87258" y2="12.0149" gradientUnits="userSpaceOnUse">
<stop stop-color="#C6F1F7"/>
<stop offset="0.364583" stop-color="#F983E9"/>
<stop offset="0.739583" stop-color="#B877FF"/>
<stop offset="1" stop-color="#C2E9CD"/>
</linearGradient>
<linearGradient id="paint3_linear_54_4845" x1="14.1413" y1="16.7037" x2="18.9149" y2="1.19378" gradientUnits="userSpaceOnUse">
<stop stop-color="#C6F1F7"/>
<stop offset="0.364583" stop-color="#F983E9"/>
<stop offset="0.739583" stop-color="#B877FF"/>
<stop offset="1" stop-color="#C2E9CD"/>
</linearGradient>
</defs>
</svg>
