<svg width="113" height="34" viewBox="0 0 113 34" fill="none" xmlns="http://www.w3.org/2000/svg">
<path d="M56.264 15.88V18.12H47.576V15.88H56.264ZM49.624 17L48.824 21.96L47.56 20.536H56.776V23H45.8L46.728 17L45.8 11H56.696V13.464H47.56L48.824 12.04L49.624 17ZM57.455 16.088V14.792L59.343 14.104L60.607 11.448H62.319V13.88H66.255V16.088H62.319V19.096C62.319 19.7787 62.4577 20.2587 62.735 20.536C63.0123 20.8027 63.5083 20.936 64.223 20.936C64.671 20.936 65.071 20.8987 65.423 20.824C65.775 20.7387 66.1057 20.6267 66.415 20.488V22.744C66.095 22.872 65.6737 22.9893 65.151 23.096C64.639 23.2027 64.1057 23.256 63.551 23.256C62.5803 23.256 61.7803 23.1013 61.151 22.792C60.5323 22.4827 60.0737 22.0507 59.775 21.496C59.487 20.9307 59.343 20.2693 59.343 19.512V16.088H57.455ZM67.7881 10.68H70.7481V23H67.7881V10.68ZM74.1721 13.624C75.0361 13.624 75.7721 13.8 76.3801 14.152C76.9988 14.504 77.4681 15 77.7881 15.64C78.1188 16.2693 78.2841 17.0267 78.2841 17.912V23H75.3081V18.36C75.3081 17.6027 75.1215 17.032 74.7481 16.648C74.3855 16.2533 73.8521 16.056 73.1481 16.056C72.6575 16.056 72.2308 16.1627 71.8681 16.376C71.5161 16.5787 71.2388 16.872 71.0361 17.256C70.8441 17.6293 70.7481 18.0773 70.7481 18.6L69.8041 18.104C69.9321 17.1333 70.1988 16.3173 70.6041 15.656C71.0095 14.9947 71.5161 14.4933 72.1241 14.152C72.7428 13.8 73.4255 13.624 74.1721 13.624ZM85.3014 23.256C84.2134 23.256 83.2374 23.0533 82.3734 22.648C81.52 22.2427 80.848 21.6773 80.3574 20.952C79.8667 20.2267 79.6214 19.3787 79.6214 18.408C79.6214 17.4587 79.856 16.6267 80.3254 15.912C80.7947 15.1973 81.44 14.6373 82.2614 14.232C83.0934 13.8267 84.032 13.624 85.0774 13.624C86.144 13.624 87.0614 13.8587 87.8294 14.328C88.5974 14.7973 89.1894 15.4587 89.6054 16.312C90.0214 17.1653 90.2294 18.168 90.2294 19.32H82.0054V17.448H88.5974L87.5254 18.12C87.4934 17.6187 87.3707 17.1973 87.1574 16.856C86.9547 16.504 86.6827 16.2373 86.3414 16.056C86 15.864 85.5947 15.768 85.1254 15.768C84.6134 15.768 84.1707 15.8693 83.7974 16.072C83.424 16.2747 83.1307 16.5573 82.9174 16.92C82.7147 17.2827 82.6134 17.704 82.6134 18.184C82.6134 18.792 82.7467 19.3093 83.0134 19.736C83.2907 20.1627 83.6854 20.488 84.1974 20.712C84.72 20.936 85.3547 21.048 86.1014 21.048C86.784 21.048 87.4667 20.9573 88.1494 20.776C88.832 20.584 89.4454 20.3173 89.9894 19.976V21.912C89.3707 22.3387 88.6614 22.6693 87.8614 22.904C87.072 23.1387 86.2187 23.256 85.3014 23.256ZM91.2467 13.88H94.2548L94.7988 17.16V23H91.8228V16.904L91.2467 13.88ZM99.1508 13.752V16.312C98.8628 16.248 98.5748 16.2 98.2868 16.168C98.0094 16.136 97.7534 16.12 97.5188 16.12C97.0068 16.12 96.5428 16.2267 96.1268 16.44C95.7214 16.6427 95.3961 16.968 95.1508 17.416C94.9161 17.864 94.7988 18.4453 94.7988 19.16L94.2068 18.424C94.2814 17.7733 94.4041 17.16 94.5748 16.584C94.7454 16.008 94.9801 15.5013 95.2788 15.064C95.5774 14.616 95.9454 14.264 96.3828 14.008C96.8308 13.752 97.3694 13.624 97.9988 13.624C98.1801 13.624 98.3721 13.6347 98.5748 13.656C98.7774 13.6773 98.9694 13.7093 99.1508 13.752ZM108.389 23L107.989 19.688L108.421 18.44L107.989 17.208L108.389 13.88H111.477L110.917 18.44L111.477 23H108.389ZM109.125 18.44C108.965 19.4107 108.661 20.2587 108.213 20.984C107.765 21.6987 107.199 22.2587 106.517 22.664C105.834 23.0587 105.066 23.256 104.213 23.256C103.317 23.256 102.527 23.0533 101.845 22.648C101.173 22.2427 100.645 21.6827 100.261 20.968C99.8766 20.2427 99.6846 19.4 99.6846 18.44C99.6846 17.48 99.8766 16.6427 100.261 15.928C100.645 15.2027 101.173 14.6373 101.845 14.232C102.527 13.8267 103.317 13.624 104.213 13.624C105.066 13.624 105.834 13.8267 106.517 14.232C107.199 14.6267 107.765 15.1813 108.213 15.896C108.671 16.6107 108.975 17.4587 109.125 18.44ZM102.693 18.44C102.693 18.9307 102.794 19.368 102.997 19.752C103.199 20.1253 103.477 20.424 103.829 20.648C104.191 20.8613 104.607 20.968 105.077 20.968C105.546 20.968 105.989 20.8613 106.405 20.648C106.831 20.424 107.205 20.1253 107.525 19.752C107.845 19.368 108.085 18.9307 108.245 18.44C108.085 17.9493 107.845 17.5173 107.525 17.144C107.205 16.76 106.831 16.4613 106.405 16.248C105.989 16.024 105.546 15.912 105.077 15.912C104.607 15.912 104.191 16.024 103.829 16.248C103.477 16.4613 103.199 16.76 102.997 17.144C102.794 17.5173 102.693 17.9493 102.693 18.44Z" fill="url(#paint0_linear_35_3509)"/>
<path d="M17 0L19.2209 10.8982L27.9274 3.97724L22.6235 13.7533L33.7417 14.048L23.3948 18.1276L31.7224 25.5L21.1739 21.9743L22.8143 32.9748L17 23.4934L11.1857 32.9748L12.8261 21.9743L2.27757 25.5L10.6052 18.1276L0.258268 14.048L11.3765 13.7533L6.07261 3.97724L14.7791 10.8982L17 0Z" fill="url(#paint1_linear_35_3509)"/>
<defs>
<linearGradient id="paint0_linear_35_3509" x1="42.3333" y1="5.37211" x2="118.375" y2="10.638" gradientUnits="userSpaceOnUse">
<stop stop-color="#C6F1F7"/>
<stop offset="0.364583" stop-color="#F983E9"/>
<stop offset="0.739583" stop-color="#B877FF"/>
<stop offset="1" stop-color="#C2E9CD"/>
</linearGradient>
<linearGradient id="paint1_linear_35_3509" x1="-1.33333" y1="-2.76742" x2="36.8538" y2="-1.98964" gradientUnits="userSpaceOnUse">
<stop stop-color="#C6F1F7"/>
<stop offset="0.364583" stop-color="#F983E9"/>
<stop offset="0.739583" stop-color="#B877FF"/>
<stop offset="1" stop-color="#C2E9CD"/>
</linearGradient>
</defs>
</svg>
