<svg width="63" height="63" viewBox="0 0 63 63" fill="none" xmlns="http://www.w3.org/2000/svg">
<path d="M9.84871 9.60223C13.9589 10.1272 18.6884 10.4026 22.6214 8.46883C23.7299 7.92528 24.7798 7.20111 25.7941 6.50233C27.3147 5.45586 28.8867 4.3727 30.6974 3.86245C32.8484 3.25004 35.3822 3.43856 38.4398 4.43084C39.436 4.75652 40.4283 5.13695 41.3912 5.50327C42.8074 6.04683 44.2699 6.60788 45.7589 6.98831C47.7869 7.50252 49.3481 7.09668 50.7203 6.53676C45.1724 2.26001 38.534 0 31.5011 0C22.933 0 14.9478 3.368 8.96875 9.48821L9.01221 9.49216C9.29141 9.53242 9.57025 9.56911 9.84871 9.60223Z" fill="#C5FF4A"/>
<path d="M10.3046 21.6862C14.0863 22.2258 18.4641 22.7146 22.4964 21.6428C24.043 21.2302 25.5348 20.5997 26.9837 19.8614C28.4326 19.1231 29.8443 18.281 31.2317 17.453C34.9762 15.2183 38.8516 12.9081 43.2401 12.8466C45.5577 12.8138 47.8358 13.4257 50.0377 14.02C51.8122 14.4981 53.6501 14.9937 55.4918 15.1421C56.4604 15.2185 57.4339 15.2042 58.3998 15.0992C57.5208 13.6606 56.5286 12.2943 55.4326 11.0133C53.8521 10.897 52.2531 10.7057 50.7031 10.5171C46.8418 10.0537 42.8456 9.56887 38.9831 10.2174C36.8642 10.5758 34.7786 11.2786 32.7579 11.9553C30.5487 12.6981 28.2599 13.4691 25.9062 13.7954C21.437 14.4072 16.9068 13.4223 12.275 12.2742L12.1621 12.2454C10.6263 11.8616 9.04362 11.4665 7.46884 11.1408C5.05827 13.9718 3.17313 17.2109 1.90234 20.7052C4.29613 20.7989 6.71531 21.1568 9.06224 21.5017L10.3046 21.6862Z" fill="#C5FF4A"/>
<path d="M53.1572 53.4027C49.047 52.8777 44.3175 52.6023 40.3845 54.5361C39.2765 55.079 38.2261 55.8038 37.2118 56.5026C35.6912 57.549 34.1193 58.6322 32.3085 59.1424C30.1575 59.7548 27.6237 59.5663 24.5661 58.574C23.5699 58.2518 22.5742 57.8679 21.6147 57.4982C20.1985 56.9552 18.7315 56.3942 17.2431 56.0138C15.219 55.4996 13.6584 55.9048 12.2856 56.4653C17.8335 60.7421 24.4719 63.0021 31.5048 63.0021C40.0696 63.0021 48.0581 59.6374 54.0372 53.5139L53.9903 53.5099C53.7115 53.4721 53.4326 53.436 53.1572 53.4027Z" fill="#C5FF4A"/>
<path d="M52.7014 41.3237C48.9168 40.7807 44.5419 40.2919 40.5044 41.3638C38.9579 41.773 37.4695 42.4102 36.0211 43.1451C34.5728 43.88 33.16 44.7256 31.7731 45.5536C28.0281 47.7882 24.1532 50.0985 19.7608 50.16C17.4426 50.1888 15.1685 49.5809 12.9666 48.9865C11.192 48.5084 9.35421 48.0129 7.51301 47.8638C6.54312 47.788 5.56827 47.8025 4.60107 47.9073C5.48317 49.3463 6.4774 50.7135 7.57453 51.9961C9.15496 52.109 10.754 52.3077 12.304 52.4922C16.1642 52.9556 20.1553 53.4377 24.0194 52.7891C26.1417 52.4307 28.2273 51.728 30.2446 51.0512C32.4572 50.3084 34.746 49.5374 37.1003 49.2151C41.569 48.5993 46.0958 49.5809 50.7309 50.7323L50.8438 50.7611C52.3797 51.1449 53.9624 51.54 55.5377 51.8657C57.9468 49.0344 59.8306 45.7953 61.1002 42.3013C58.7132 42.207 56.294 41.8497 53.9511 41.5049C53.5339 41.4417 53.1185 41.3801 52.7014 41.3237Z" fill="#C5FF4A"/>
<path d="M62.9644 29.9649C62.9571 29.7955 62.9464 29.6262 62.9351 29.4569C62.9102 29.0296 62.8702 28.5916 62.8222 28.1096C62.7494 27.3927 62.641 26.642 62.5033 25.8828C62.0782 23.5182 61.3819 21.2104 60.4284 19.0052C58.9106 18.6665 57.578 18.4802 56.3543 18.4294C51.105 18.2268 46.1887 20.5591 41.4333 22.8078C37.8085 24.5282 34.0567 26.3028 30.1056 27.0123C24.0396 28.0988 17.8759 26.6358 11.9149 25.2236C10.5936 24.912 9.22423 24.5863 7.8882 24.2962C5.4837 23.7747 3.1949 23.4456 1.07995 23.3113C0.401109 25.8379 0.0399023 28.4393 0.00468952 31.0554C-8.02057e-05 31.1264 -0.00121387 31.1976 0.00129959 31.2687V31.4945C0.00129959 32.038 0.0154114 32.5415 0.0374245 33.0337C0.0447622 33.203 0.0554871 33.3724 0.0662114 33.5417C0.0949978 33.9696 0.131689 34.4109 0.181924 34.889C0.254737 35.6064 0.35972 36.352 0.497443 37.1163C0.921969 39.4813 1.61939 41.7891 2.57571 43.9934C4.08953 44.3321 5.42217 44.5183 6.64644 44.5658C11.9014 44.7684 16.8154 42.4401 21.5668 40.1908C25.1956 38.471 28.9474 36.6964 32.8951 35.9863C38.9605 34.8997 45.1282 36.3628 51.0892 37.7756C52.4105 38.0871 53.7759 38.4128 55.1159 38.7024C57.521 39.2239 59.8092 39.5535 61.9242 39.6873C62.6041 37.1615 62.9644 34.5604 62.9966 31.9449L63 31.4996C63.0005 30.9571 62.9898 30.4537 62.9644 29.9649Z" fill="#C5FF4A"/>
</svg>
