<svg width="158" height="158" viewBox="0 0 158 158" fill="none" xmlns="http://www.w3.org/2000/svg">
<g clip-path="url(#clip0_30_641)">
<path d="M78.9999 3.0921C37.0759 3.0921 3.09204 37.076 3.09204 79C3.09204 120.924 37.0759 154.908 78.9999 154.908C120.924 154.908 154.908 120.924 154.908 79C154.908 37.076 120.924 3.0921 78.9999 3.0921Z" fill="url(#paint0_linear_30_641)"/>
<path d="M103.272 24.5421C95.858 21.2328 87.6438 19.3929 79.0001 19.3929C46.0799 19.3929 19.3931 46.0798 19.3931 79C19.3931 111.92 46.0799 138.607 79.0001 138.607C111.92 138.607 138.607 111.92 138.607 79C138.607 64.8324 133.494 51.9545 125.41 41.5913C116.957 30.7566 103.272 24.5421 103.272 24.5421Z" fill="#C5FF4A"/>
<path d="M45.621 32.6518C45.9942 30.989 44.9488 29.3385 43.286 28.9653C41.6233 28.5921 39.9728 29.6375 39.5996 31.3003C39.2264 32.9631 40.2718 34.6135 41.9346 34.9867C43.5973 35.3599 45.2478 34.3145 45.621 32.6518Z" fill="black"/>
<path d="M0 79C0 100.102 8.21723 119.941 23.1381 134.862C38.0589 149.783 57.8977 158 79 158C100.102 158 119.941 149.783 134.862 134.862C149.783 119.941 158 100.102 158 79C158 57.8977 149.783 38.0589 134.862 23.1381C119.941 8.21723 100.102 0 79 0C57.8977 0 38.0589 8.21723 23.1381 23.1381C8.21723 38.0589 0 57.8977 0 79ZM6.18391 79C6.18391 59.5496 13.758 41.2636 27.5108 27.5108C41.2636 13.758 59.5496 6.18391 79 6.18391C98.4504 6.18391 116.736 13.758 130.489 27.5108C144.242 41.2636 151.816 59.5493 151.816 79C151.816 98.4507 144.242 116.736 130.489 130.489C116.736 144.242 98.4507 151.816 79 151.816C59.5493 151.816 41.2636 144.242 27.5108 130.489C13.758 116.736 6.18391 98.4504 6.18391 79Z" fill="black"/>
<path d="M30.1841 39.6494C31.2565 38.3205 33.2031 38.1126 34.5322 39.1852C35.861 40.2576 36.069 42.2042 34.9963 43.5333C26.9281 53.5302 22.4847 66.1258 22.4847 79C22.4847 110.162 47.8375 135.515 78.9999 135.515C110.162 135.515 135.515 110.162 135.515 79C135.515 47.8376 110.162 22.4848 78.9999 22.4848C70.9861 22.4848 63.2441 24.1268 55.9887 27.3655C54.4294 28.0617 52.601 27.3618 51.9051 25.8024C51.2089 24.2431 51.9088 22.4147 53.4681 21.7188C61.5218 18.1237 70.1121 16.3008 78.9999 16.3008C113.572 16.3008 141.699 44.4276 141.699 79C141.699 113.572 113.572 141.699 78.9999 141.699C44.4276 141.699 16.3008 113.572 16.3008 79C16.3008 64.7174 21.2312 50.7427 30.1841 39.6494Z" fill="black"/>
<path d="M78.9999 28.9671C78.5308 28.9671 78.0679 29.0739 77.6462 29.2793C77.2244 29.4847 76.855 29.7834 76.5657 30.1527L50.2843 63.7107C49.8004 64.3292 49.5705 65.1088 49.6412 65.8909C49.5443 67.0358 50.0887 68.1896 51.1435 68.8145L77.4249 84.3775C78.3821 84.9457 79.6183 84.9457 80.5756 84.3775L106.857 68.8145C107.913 68.1893 108.457 67.0337 108.359 65.8878C108.429 65.1069 108.199 64.3287 107.716 63.711L81.4341 30.1527C81.1449 29.7834 80.7754 29.4847 80.3537 29.2793C79.9319 29.0739 79.469 28.9671 78.9999 28.9671ZM82.0923 60.9031L98.5259 66.5612L82.0923 76.2927V60.9031ZM75.9081 76.2927L59.4743 66.5612L75.9081 60.9028V76.2927ZM75.9081 41.0217V54.3628L61.6023 59.2886L75.9081 41.0217ZM82.0923 54.3628V41.0223L96.3975 59.2883L82.0923 54.3628Z" fill="black"/>
<path d="M108.369 81.3206C108.248 79.0222 105.649 77.6542 103.68 78.8343L79.0004 93.449L54.3157 78.8315C53.1878 78.1504 51.7019 78.2785 50.7036 79.1349C49.5779 80.1004 49.3041 81.8011 50.0679 83.0716L76.3373 127.569C77.5121 129.559 80.4875 129.559 81.6624 127.569L107.927 83.0796C108.245 82.5498 108.399 81.9377 108.369 81.3206ZM75.9083 114.678L61.5007 90.2729L75.9086 98.8046L75.9083 114.678ZM82.0922 98.8049L96.4992 90.2735L82.0922 114.678V98.8049Z" fill="black"/>
</g>
<defs>
<linearGradient id="paint0_linear_30_641" x1="-2.86152" y1="-9.2649" x2="167.651" y2="-5.79197" gradientUnits="userSpaceOnUse">
<stop stop-color="#C6F1F7"/>
<stop offset="0.364583" stop-color="#F983E9"/>
<stop offset="0.739583" stop-color="#B877FF"/>
<stop offset="1" stop-color="#C2E9CD"/>
</linearGradient>
<clipPath id="clip0_30_641">
<rect width="158" height="158" fill="white"/>
</clipPath>
</defs>
</svg>
