<svg width="48" height="48" viewBox="0 0 48 48" fill="none" xmlns="http://www.w3.org/2000/svg">
<circle cx="24" cy="24" r="24" fill="#373548"/>
<path d="M23 24.33V21" stroke="white" stroke-width="1.5" stroke-linecap="round" stroke-linejoin="round"/>
<path d="M22.999 26.833C22.907 26.833 22.832 26.908 22.833 27C22.833 27.092 22.908 27.167 23 27.167C23.092 27.167 23.167 27.092 23.167 27C23.167 26.908 23.092 26.833 22.999 26.833Z" stroke="white" stroke-width="1.5" stroke-linecap="round" stroke-linejoin="round"/>
<path d="M28.654 29.6554C27.206 31.1024 25.209 32.0014 23 32.0014C18.582 32.0014 15 28.4194 15 24.0014C15 23.3934 15.074 22.8034 15.202 22.2344" stroke="white" stroke-width="1.5" stroke-linecap="round" stroke-linejoin="round"/>
<path d="M13 24L15 22L17 24" stroke="white" stroke-width="1.5" stroke-linecap="round" stroke-linejoin="round"/>
<path d="M33 24L31 26L29 24" stroke="white" stroke-width="1.5" stroke-linecap="round" stroke-linejoin="round"/>
<path d="M17.343 18.343C18.791 16.896 20.791 16 23 16C27.418 16 31 19.582 31 24C31 24.608 30.926 25.198 30.798 25.767" stroke="white" stroke-width="1.5" stroke-linecap="round" stroke-linejoin="round"/>
</svg>
