<svg width="48" height="48" viewBox="0 0 48 48" fill="none" xmlns="http://www.w3.org/2000/svg">
<circle cx="24" cy="24" r="24" fill="#373548"/>
<path d="M32.2463 21C32.2463 20.6055 31.9191 20.2857 31.5155 20.2857C31.1119 20.2857 30.7848 20.6055 30.7848 21H32.2463ZM16.3211 27.4358C16.0831 27.1172 15.6259 27.0476 15.3 27.2803C14.9741 27.513 14.9028 27.9599 15.1409 28.2784L16.3211 27.4358ZM15.6067 27.1533C15.209 27.2203 14.9422 27.5897 15.0107 27.9786C15.0793 28.3673 15.4573 28.6281 15.855 28.5611L15.6067 27.1533ZM18.3616 27L18.5938 27.6772C18.8331 27.5989 19.0141 27.4055 19.0725 27.1655C19.131 26.9256 19.0586 26.6731 18.8812 26.4977L18.3616 27ZM17.4847 16.7143L18.1284 16.376C18.0089 16.1588 17.7832 16.0172 17.5315 16.0015C17.2797 15.9857 17.0374 16.098 16.8905 16.2985L17.4847 16.7143ZM22.7462 21L22.5736 21.6941C22.7874 21.7449 23.0131 21.6988 23.1883 21.5688C23.3634 21.4387 23.4693 21.2385 23.4766 21.0236L22.7462 21ZM30.6385 18.4286L30.0283 18.8217C30.1635 19.0222 30.3928 19.1429 30.6385 19.1429V18.4286ZM33.2692 18.4286L33.8772 18.8248C34.0268 18.6056 34.0407 18.3238 33.9135 18.0915C33.7864 17.8593 33.5388 17.7143 33.2692 17.7143V18.4286ZM30.9074 20.6038C30.6834 20.932 30.7742 21.3755 31.1101 21.5943C31.4459 21.8132 31.8995 21.7245 32.1234 21.3962L30.9074 20.6038ZM30.7848 21C30.7848 23.8685 29.9469 26.2581 28.4464 27.9202C26.9559 29.5714 24.7528 30.5714 21.8694 30.5714V32C25.1244 32 27.7443 30.8573 29.5423 28.8655C31.3303 26.8847 32.2463 24.1314 32.2463 21H30.7848ZM21.8694 30.5714C20.2565 30.5714 19.1777 30.1643 18.3662 29.603C17.5325 29.0263 16.937 28.26 16.3211 27.4358L15.1409 28.2784C15.7498 29.0933 16.4697 30.0413 17.522 30.7692C18.5967 31.5125 19.9747 32 21.8694 32V30.5714ZM15.855 28.5611C15.8782 28.5571 15.8961 28.553 15.9023 28.5515C15.9107 28.5495 15.9176 28.5478 15.9216 28.5468C15.9298 28.5446 15.9365 28.5427 15.9399 28.5417C15.9473 28.5396 15.954 28.5376 15.9583 28.5362C15.9677 28.5334 15.9785 28.53 15.9896 28.5265C16.0122 28.5194 16.0432 28.5095 16.0805 28.4975C16.1554 28.4733 16.2603 28.4394 16.3844 28.399C16.6329 28.3183 16.9613 28.2112 17.2885 28.1043C17.6157 27.9974 17.942 27.8906 18.1865 27.8106C18.3088 27.7706 18.4106 27.7373 18.4819 27.7139C18.5175 27.7022 18.5455 27.6931 18.5645 27.6869C18.5741 27.6838 18.5814 27.6814 18.5863 27.6798C18.5888 27.6789 18.5907 27.6783 18.5919 27.678C18.5925 27.6777 18.5935 27.6774 18.5938 27.6772C18.5938 27.6772 18.5938 27.6772 18.3616 27C18.1295 26.3227 18.1294 26.3227 18.1294 26.3227C18.1291 26.3227 18.1282 26.3232 18.1276 26.3233C18.1263 26.3238 18.1245 26.3244 18.122 26.3252C18.1171 26.3268 18.1098 26.3292 18.1003 26.3324C18.0812 26.3386 18.0532 26.3477 18.0176 26.3594C17.9465 26.3827 17.8447 26.4159 17.7226 26.4559C17.4782 26.5359 17.1521 26.6426 16.8252 26.7494C16.4982 26.8562 16.1707 26.9631 15.9233 27.0434C15.7995 27.0837 15.6964 27.1171 15.6236 27.1405C15.587 27.1522 15.5592 27.1612 15.5406 27.167C15.531 27.17 15.5257 27.1717 15.5235 27.1724C15.5221 27.1728 15.5242 27.1721 15.5282 27.1709C15.53 27.1705 15.5353 27.1689 15.5424 27.1671C15.5459 27.1662 15.5523 27.1645 15.5604 27.1626C15.5662 27.1613 15.5838 27.1571 15.6067 27.1533L15.855 28.5611ZM18.8812 26.4977C16.2077 23.8558 16.0078 19.9577 18.0789 17.1301L16.8905 16.2985C14.4134 19.6804 14.6577 24.3556 17.8421 27.5024L18.8812 26.4977ZM16.8411 17.0525C17.9909 19.1429 20.1536 21.1192 22.5736 21.6941L22.9188 20.3059C21.001 19.8503 19.1358 18.2076 18.1284 16.376L16.8411 17.0525ZM23.4766 21.0236C23.5132 19.9417 23.9037 19.0473 24.5236 18.4282C25.1396 17.8129 26.022 17.4286 27.1308 17.4286V16C25.6565 16 24.3886 16.5204 23.479 17.429C22.5733 18.3337 22.063 19.5821 22.0158 20.9764L23.4766 21.0236ZM27.1308 17.4286C27.9158 17.4286 28.4909 17.5742 28.9323 17.8044C29.3721 18.0339 29.7243 18.3708 30.0283 18.8217L31.2486 18.0355C30.8385 17.4273 30.3162 16.9071 29.6204 16.5441C28.9262 16.182 28.1046 16 27.1308 16V17.4286ZM30.6385 19.1429H33.2692V17.7143H30.6385V19.1429ZM32.6612 18.0324L30.9074 20.6038L32.1234 21.3962L33.8772 18.8248L32.6612 18.0324Z" fill="white"/>
</svg>
