<svg width="48" height="48" viewBox="0 0 48 48" fill="none" xmlns="http://www.w3.org/2000/svg">
<circle cx="24" cy="24" r="24" fill="#373548"/>
<path d="M20.4436 31.997H17.7774C16.7958 31.997 16 31.2012 16 30.2195V17.7774C16 16.7958 16.7958 16 17.7774 16H27.5534C28.535 16 29.3308 16.7958 29.3308 17.7774V20.4436" stroke="white" stroke-width="1.5" stroke-linecap="round" stroke-linejoin="round"/>
<path d="M28.2391 26.8066L31.5115 29.5759C31.904 29.9061 32.0798 30.4276 31.9672 30.9281C31.8546 31.4286 31.4724 31.8247 30.9761 31.9548C30.48 32.085 29.9525 31.9278 29.6087 31.5471L26.7079 28.353" stroke="white" stroke-width="1.5" stroke-linecap="round" stroke-linejoin="round"/>
<path d="M19.5552 20.4434H24.8875" stroke="white" stroke-width="1.5" stroke-linecap="round" stroke-linejoin="round"/>
<path d="M19.5552 23.9985H21.3326" stroke="white" stroke-width="1.5" stroke-linecap="round" stroke-linejoin="round"/>
<path fill-rule="evenodd" clip-rule="evenodd" d="M24.8201 25.652L23.5181 26.6892C23.2777 26.882 23.1307 27.1681 23.1137 27.4759C23.0967 27.7836 23.2115 28.0841 23.4292 28.3022L24.4202 29.2975C24.6361 29.5145 24.9344 29.6288 25.24 29.6118C25.5456 29.5949 25.8293 29.4482 26.0199 29.2087L27.065 27.9085C27.3136 27.5996 27.5955 27.3192 27.9057 27.0722L29.2077 26.0342C29.4481 25.8414 29.5951 25.5555 29.6121 25.248C29.629 24.9404 29.5143 24.64 29.2965 24.422L28.3092 23.4258C28.0933 23.2089 27.7951 23.0945 27.4895 23.1115C27.1839 23.1285 26.9 23.2752 26.7095 23.5146L25.6608 24.8157C25.412 25.1244 25.1301 25.4049 24.8201 25.652Z" stroke="white" stroke-width="1.5" stroke-linecap="round" stroke-linejoin="round"/>
<path d="M25.7075 31.979H23.9301" stroke="white" stroke-width="1.5" stroke-linecap="round" stroke-linejoin="round"/>
</svg>
