<svg width="48" height="48" viewBox="0 0 48 48" fill="none" xmlns="http://www.w3.org/2000/svg">
<circle cx="24" cy="24" r="24" fill="#373548"/>
<path fill-rule="evenodd" clip-rule="evenodd" d="M20.6975 15.0126C20.6523 15.0189 20.4365 15.0491 20.218 15.0797C18.3047 15.3473 16.459 16.0608 15.3553 16.9596C15.0529 17.2059 14.8139 17.5551 14.4868 18.2287C13.45 20.3638 12.532 23.5992 12.1933 26.3114C12.0739 27.2674 12.0334 27.7704 12.0078 28.613C11.9887 29.2454 11.989 29.2468 12.1973 29.572C13.0255 30.8642 14.7376 31.9015 16.9871 32.4739C17.4782 32.5989 18.118 32.7109 18.4978 32.7384C18.7495 32.7566 18.7719 32.7537 18.9106 32.6859C19.0454 32.62 19.0862 32.5738 19.4169 32.1137C20.2726 30.923 20.3734 30.7912 20.4263 30.794C20.4549 30.7955 20.6342 30.8295 20.8248 30.8695C22.7003 31.2633 24.9332 31.284 26.8898 30.9258C27.1761 30.8734 27.4577 30.8178 27.5156 30.8023C27.6058 30.7781 27.6264 30.7812 27.6586 30.8237C27.6793 30.8511 27.9705 31.2536 28.3057 31.7184C28.6409 32.1831 28.9501 32.5927 28.9928 32.6287C29.1273 32.7419 29.2603 32.7619 29.6364 32.7256C31.111 32.5833 33.0069 31.9243 34.2053 31.1374C34.9304 30.6614 35.5629 30.0193 35.9125 29.4042L36 29.2502V28.801C36 27.5263 35.7917 25.7835 35.4399 24.1156C34.8301 21.2237 33.7361 18.2447 32.892 17.1771C32.7491 16.9963 32.2029 16.6096 31.6537 16.3005C30.5726 15.692 28.8781 15.1864 27.3633 15.0204C27.0717 14.9885 27.0686 14.9888 26.9249 15.0597C26.8383 15.1024 26.7537 15.1703 26.7143 15.2287C26.6379 15.3419 26.4527 15.8668 26.4063 16.1013L26.3746 16.2617L26.276 16.2451C26.073 16.2107 25.288 16.1194 24.9444 16.0901C24.1455 16.022 22.9699 16.0675 22.0456 16.2024C21.8377 16.2327 21.6574 16.2513 21.6451 16.2436C21.6327 16.236 21.6151 16.1832 21.606 16.1264C21.5783 15.9532 21.4008 15.4286 21.3208 15.2837C21.206 15.0756 20.9725 14.974 20.6975 15.0126ZM20.5525 16.2976C20.5757 16.3807 20.5869 16.4533 20.5776 16.4588C20.5682 16.4642 20.5174 16.4775 20.4646 16.4883C20.0621 16.5709 19.0946 16.8794 18.5799 17.0893C18.1372 17.2699 17.6474 17.5066 17.2997 17.7078C17.1341 17.8036 16.9637 17.8998 16.9211 17.9214C16.7367 18.0152 16.6013 18.2285 16.6013 18.4251C16.6013 18.5408 16.7345 18.7698 16.8395 18.8347C16.9638 18.9115 17.1302 18.9419 17.2483 18.9093C17.2991 18.8953 17.4377 18.8237 17.5561 18.7502C17.8004 18.5987 18.465 18.2606 18.7522 18.1417C19.9455 17.6478 21.1077 17.3582 22.6566 17.1689C23.2178 17.1003 24.7716 17.0999 25.3437 17.1681C27.3919 17.4126 29.0911 17.935 30.4078 18.7252C30.7064 18.9043 30.8228 18.9415 30.992 18.9118C31.3725 18.8449 31.5329 18.3052 31.2509 18.041C30.9798 17.7871 29.5768 17.1132 28.7115 16.8213C28.3694 16.7059 27.5442 16.4751 27.4737 16.4751C27.4147 16.4751 27.4129 16.4467 27.4615 16.2833C27.5086 16.125 27.5244 16.1233 28.0742 16.2145C28.8755 16.3475 29.8083 16.6086 30.4791 16.8876C30.9889 17.0997 31.8222 17.5828 32.0034 17.7713C32.2151 17.9914 32.6395 18.7594 32.9226 19.4342C34.0345 22.0854 34.8365 25.6646 34.9269 28.3788L34.9451 28.9254L34.8184 29.1048C34.0437 30.202 32.3664 31.128 30.4241 31.531C30.0006 31.6189 29.5981 31.6775 29.5656 31.656C29.5181 31.6246 28.7317 30.5494 28.7287 30.5117C28.7265 30.4853 28.8564 30.4252 29.1279 30.3269C30.1747 29.9478 31.0771 29.473 31.8124 28.9144C31.996 28.7749 32.063 28.6642 32.0765 28.4778C32.0989 28.1673 31.8819 27.928 31.5779 27.928C31.4057 27.928 31.3388 27.9595 31.0565 28.1739C30.5999 28.5205 29.8414 28.9365 29.1992 29.1927C28.7513 29.3713 28.0349 29.5984 27.826 29.628C27.7205 29.643 27.5962 29.6784 27.5497 29.7068C27.4166 29.788 26.5929 29.9483 25.8623 30.0352C24.6115 30.1839 23.0091 30.162 21.7798 29.9793C21.2596 29.902 20.6104 29.7686 20.4646 29.709C20.3968 29.6813 20.2699 29.6523 20.1827 29.6446C19.8942 29.6189 18.7872 29.2104 18.1384 28.8899C17.6767 28.662 17.263 28.4109 16.9216 28.1516C16.6689 27.9597 16.582 27.9183 16.4353 27.92C16.1165 27.9238 15.8915 28.1807 15.9227 28.5054C15.9395 28.6803 16.0241 28.7874 16.315 29.0025C16.9812 29.4949 17.8176 29.9311 18.7796 30.2877C19.0207 30.3771 19.2402 30.4593 19.2675 30.4704C19.3103 30.4879 19.2827 30.5369 19.0637 30.8327C18.9243 31.0209 18.7258 31.289 18.6225 31.4285C18.4671 31.6382 18.4242 31.68 18.3742 31.6697C18.341 31.6629 18.2521 31.6495 18.1768 31.6399C17.9483 31.6109 17.2607 31.4666 16.9986 31.3926C16.0794 31.133 15.2728 30.7982 14.6734 30.4274C14.0779 30.059 13.5571 29.6017 13.2314 29.161L13.0592 28.9281L13.0766 28.4212C13.1446 26.4345 13.6067 23.8358 14.2629 21.7495C14.5401 20.8685 14.773 20.1948 14.9457 19.7748C15.001 19.6402 15.0698 19.4703 15.0986 19.3973C15.2673 18.9697 15.6969 18.1737 15.9149 17.8849C16.1848 17.5275 17.2321 16.9591 18.2324 16.6272C18.8416 16.4251 20.0678 16.1539 20.3985 16.1482L20.5104 16.1463L20.5525 16.2976ZM20.3139 22.3286C19.3757 22.4768 18.6181 23.208 18.3516 24.2225C18.2797 24.4962 18.2536 25.046 18.2981 25.3502C18.4243 26.2134 18.9742 26.9843 19.7087 27.3281C20.022 27.4747 20.2905 27.5246 20.695 27.5114C21.0066 27.5013 21.0851 27.4887 21.2929 27.4159C22.2552 27.0788 22.8992 26.1542 22.9495 25.0374C22.9729 24.5176 22.8848 24.108 22.6482 23.6368C22.3243 22.9921 21.7971 22.5571 21.1085 22.3665C20.9894 22.3335 20.4466 22.3076 20.3139 22.3286ZM26.9719 22.354C26.3127 22.4837 25.6966 22.9728 25.3588 23.6348C24.9542 24.4278 24.9479 25.3605 25.3416 26.1607C25.6064 26.6987 25.9525 27.0543 26.4514 27.3008C26.7801 27.4633 27.012 27.516 27.3966 27.516C27.7604 27.516 28.0077 27.4638 28.2942 27.3264C28.5877 27.1857 28.733 27.084 28.9577 26.8623C29.7811 26.0498 29.9799 24.7037 29.4345 23.6348C28.9441 22.6738 27.9568 22.1604 26.9719 22.354ZM21.1113 23.4876C22.0507 23.953 22.199 25.4256 21.3825 26.181C21.3373 26.2228 21.2084 26.3032 21.0961 26.3596C20.8988 26.4587 20.8821 26.4621 20.6029 26.4621C20.3324 26.4621 20.3026 26.4565 20.1358 26.3737C19.8521 26.2329 19.6092 25.9763 19.4675 25.6676C19.3713 25.4579 19.338 25.3096 19.3223 25.021C19.2935 24.4922 19.4431 24.0691 19.7776 23.7331C20.0589 23.4506 20.3223 23.3433 20.6826 23.3644C20.8522 23.3743 20.925 23.3953 21.1113 23.4876ZM27.6213 23.3831C28.1085 23.4864 28.4968 23.9003 28.6461 24.4757C28.7072 24.7111 28.7067 25.1448 28.645 25.3775C28.5272 25.8215 28.2307 26.2034 27.8713 26.3736C27.6975 26.4559 27.6641 26.4621 27.3966 26.4621C27.1286 26.4621 27.096 26.456 26.92 26.3727C26.7863 26.3093 26.6782 26.2291 26.5501 26.0978C26.2445 25.7847 26.102 25.4134 26.1013 24.9278C26.1004 24.2644 26.3879 23.7453 26.907 23.4731C27.1142 23.3645 27.3772 23.3313 27.6213 23.3831Z" fill="white"/>
</svg>
