<svg width="30" height="30" viewBox="0 0 30 30" fill="none" xmlns="http://www.w3.org/2000/svg">
<path d="M10 13.75H5C4.00544 13.75 3.05161 13.3549 2.34835 12.6517C1.64509 11.9484 1.25 10.9946 1.25 10V5C1.25 4.00544 1.64509 3.05161 2.34835 2.34835C3.05161 1.64509 4.00544 1.25 5 1.25H10C10.9946 1.25 11.9484 1.64509 12.6517 2.34835C13.3549 3.05161 13.75 4.00544 13.75 5V10C13.75 10.9946 13.3549 11.9484 12.6517 12.6517C11.9484 13.3549 10.9946 13.75 10 13.75ZM5 3.75C4.66848 3.75 4.35054 3.8817 4.11612 4.11612C3.8817 4.35054 3.75 4.66848 3.75 5V10C3.75 10.3315 3.8817 10.6495 4.11612 10.8839C4.35054 11.1183 4.66848 11.25 5 11.25H10C10.3315 11.25 10.6495 11.1183 10.8839 10.8839C11.1183 10.6495 11.25 10.3315 11.25 10V5C11.25 4.66848 11.1183 4.35054 10.8839 4.11612C10.6495 3.8817 10.3315 3.75 10 3.75H5ZM25 13.75H20C19.0054 13.75 18.0516 13.3549 17.3483 12.6517C16.6451 11.9484 16.25 10.9946 16.25 10V5C16.25 4.00544 16.6451 3.05161 17.3483 2.34835C18.0516 1.64509 19.0054 1.25 20 1.25H25C25.9946 1.25 26.9484 1.64509 27.6517 2.34835C28.3549 3.05161 28.75 4.00544 28.75 5V10C28.75 10.9946 28.3549 11.9484 27.6517 12.6517C26.9484 13.3549 25.9946 13.75 25 13.75ZM20 3.75C19.6685 3.75 19.3505 3.8817 19.1161 4.11612C18.8817 4.35054 18.75 4.66848 18.75 5V10C18.75 10.3315 18.8817 10.6495 19.1161 10.8839C19.3505 11.1183 19.6685 11.25 20 11.25H25C25.3315 11.25 25.6495 11.1183 25.8839 10.8839C26.1183 10.6495 26.25 10.3315 26.25 10V5C26.25 4.66848 26.1183 4.35054 25.8839 4.11612C25.6495 3.8817 25.3315 3.75 25 3.75H20ZM10 28.75H5C4.00544 28.75 3.05161 28.3549 2.34835 27.6517C1.64509 26.9484 1.25 25.9946 1.25 25V20C1.25 19.0054 1.64509 18.0516 2.34835 17.3483C3.05161 16.6451 4.00544 16.25 5 16.25H10C10.9946 16.25 11.9484 16.6451 12.6517 17.3483C13.3549 18.0516 13.75 19.0054 13.75 20V25C13.75 25.9946 13.3549 26.9484 12.6517 27.6517C11.9484 28.3549 10.9946 28.75 10 28.75ZM5 18.75C4.66848 18.75 4.35054 18.8817 4.11612 19.1161C3.8817 19.3505 3.75 19.6685 3.75 20V25C3.75 25.3315 3.8817 25.6495 4.11612 25.8839C4.35054 26.1183 4.66848 26.25 5 26.25H10C10.3315 26.25 10.6495 26.1183 10.8839 25.8839C11.1183 25.6495 11.25 25.3315 11.25 25V20C11.25 19.6685 11.1183 19.3505 10.8839 19.1161C10.6495 18.8817 10.3315 18.75 10 18.75H5ZM25 28.75H20C19.0054 28.75 18.0516 28.3549 17.3483 27.6517C16.6451 26.9484 16.25 25.9946 16.25 25V20C16.25 19.0054 16.6451 18.0516 17.3483 17.3483C18.0516 16.6451 19.0054 16.25 20 16.25H25C25.9946 16.25 26.9484 16.6451 27.6517 17.3483C28.3549 18.0516 28.75 19.0054 28.75 20V25C28.75 25.9946 28.3549 26.9484 27.6517 27.6517C26.9484 28.3549 25.9946 28.75 25 28.75ZM20 18.75C19.6685 18.75 19.3505 18.8817 19.1161 19.1161C18.8817 19.3505 18.75 19.6685 18.75 20V25C18.75 25.3315 18.8817 25.6495 19.1161 25.8839C19.3505 26.1183 19.6685 26.25 20 26.25H25C25.3315 26.25 25.6495 26.1183 25.8839 25.8839C26.1183 25.6495 26.25 25.3315 26.25 25V20C26.25 19.6685 26.1183 19.3505 25.8839 19.1161C25.6495 18.8817 25.3315 18.75 25 18.75H20Z" fill="#ABABAB"/>
</svg>
