<svg width="30" height="30" viewBox="0 0 30 30" fill="none" xmlns="http://www.w3.org/2000/svg">
<path d="M26.6572 7.80001V5.14287C26.6572 4.15716 25.8429 3.34287 24.8572 3.34287H22.2C17.8714 0.685727 12.3 0.557155 7.80001 3.34287H5.14287C4.15716 3.34287 3.34287 4.15716 3.34287 5.14287V7.80001C0.685727 12.1286 0.557155 17.7 3.34287 22.2V24.8572C3.34287 25.8429 4.15716 26.6572 5.14287 26.6572H7.80001C12.1286 29.3143 17.7 29.4429 22.2 26.6572H24.8572C25.8429 26.6572 26.6572 25.8429 26.6572 24.8572V22.2C29.3572 17.8714 29.4429 12.3 26.6572 7.80001ZM24.8572 4.20001C25.3714 4.20001 25.8 4.62858 25.8 5.14287V6.60001C25.1143 5.70001 24.3 4.88573 23.4 4.20001H24.8572ZM23.7857 5.6143L20.0572 9.34287C17.1857 6.77144 12.8572 6.77144 9.98573 9.34287L6.25716 5.6143C11.1857 0.985727 18.8143 0.985727 23.7857 5.6143ZM21.7286 15C21.7286 18.7286 18.7286 21.7286 15 21.7286C11.2714 21.7286 8.27144 18.7286 8.27144 15C8.27144 11.2714 11.2714 8.27144 15 8.27144C18.7286 8.27144 21.7286 11.2714 21.7286 15ZM4.20001 5.14287C4.20001 4.62858 4.62858 4.20001 5.14287 4.20001H6.60001C5.70001 4.88573 4.88573 5.70001 4.20001 6.60001V5.14287ZM5.6143 6.2143L9.34287 9.94287C6.77144 12.8143 6.77144 17.1429 9.34287 20.0143L5.6143 23.7429C0.985727 18.8143 0.985727 11.1857 5.6143 6.2143ZM5.14287 25.8C4.62858 25.8 4.20001 25.3714 4.20001 24.8572V23.4C4.88573 24.3 5.70001 25.1143 6.60001 25.8H5.14287ZM6.2143 24.3857L9.94287 20.6572C12.8143 23.2286 17.1429 23.2286 20.0143 20.6572L23.7429 24.3857C18.8143 29.0143 11.1857 29.0143 6.2143 24.3857ZM25.8 24.8572C25.8 25.3714 25.3714 25.8 24.8572 25.8H23.4C24.3 25.1143 25.1143 24.3 25.8 23.4V24.8572ZM24.3857 23.7857L20.6572 20.0572C23.2286 17.1857 23.2286 12.8572 20.6572 9.98573L24.3857 6.25716C29.0143 11.1857 29.0143 18.8143 24.3857 23.7857Z" fill="#ABABAB"/>
</svg>
