<svg width="30" height="30" viewBox="0 0 30 30" fill="none" xmlns="http://www.w3.org/2000/svg">
<g clip-path="url(#clip0_54_2924)">
<path d="M29.5 15C29.5 6.99187 23.0081 0.499998 15 0.499998C6.99187 0.499998 0.5 6.99187 0.5 15C0.5 23.0081 6.99187 29.5 15 29.5C23.0081 29.5 29.5 23.0081 29.5 15Z" fill="black" stroke="#ABABAB"/>
<path d="M24.8325 5.1645C30.2645 10.5965 30.2645 19.4035 24.8325 24.8355C19.4005 30.2675 10.5935 30.2675 5.16152 24.8355C-0.270476 19.4035 -0.270476 10.5965 5.16152 5.1645C10.5935 -0.267498 19.4005 -0.267496 24.8325 5.1645Z" fill="#0B0B0B"/>
<path d="M15.012 24.7996V16.2271H14.454V14.8636H8.97751L15.012 24.7996Z" fill="#ABABAB"/>
<path d="M21.2985 14.046L16.155 6.78302L15.012 5.17502V12.6825H15.546V14.046H21.2985Z" fill="#ABABAB"/>
<path d="M20.199 16.2271H15.012V24.7996L20.199 16.2271Z" fill="#ABABAB"/>
<path d="M15.012 12.6825V5.17499L9.65851 12.6825H15.012Z" fill="#ABABAB"/>
</g>
<defs>
<clipPath id="clip0_54_2924">
<rect width="30" height="30" fill="white" transform="matrix(1 0 0 -1 0 30)"/>
</clipPath>
</defs>
</svg>
