<svg width="32" height="32" viewBox="0 0 32 32" fill="none" xmlns="http://www.w3.org/2000/svg">
<path fill-rule="evenodd" clip-rule="evenodd" d="M19.1212 23.6252L6.48853 29.9415C5.21722 30.5772 3.6818 30.328 2.67675 29.3228C1.6717 28.3178 1.42253 26.7823 2.05818 25.5112L8.3745 12.8785C8.61407 12.3992 9.06942 12.0644 9.59828 11.9786C10.1271 11.8928 10.665 12.0664 11.0438 12.4453L19.5543 20.9558C19.9332 21.3347 20.1068 21.8725 20.021 22.4013C19.9352 22.9302 19.6003 23.3855 19.1212 23.6252Z" stroke="#ABABAB" stroke-width="1.5" stroke-linecap="round" stroke-linejoin="round"/>
<path d="M4.3335 1V1.83333" stroke="#ABABAB" stroke-width="1.5" stroke-linecap="round" stroke-linejoin="round"/>
<path d="M4.3335 7.66659V6.83325" stroke="#ABABAB" stroke-width="1.5" stroke-linecap="round" stroke-linejoin="round"/>
<path d="M7.66683 4.33337H6.8335" stroke="#ABABAB" stroke-width="1.5" stroke-linecap="round" stroke-linejoin="round"/>
<path d="M1 4.33337H1.83333" stroke="#ABABAB" stroke-width="1.5" stroke-linecap="round" stroke-linejoin="round"/>
<path d="M16 1C16.844 1.42203 17.4662 2.18617 17.7083 3.0982C17.9507 4.01023 17.7895 4.98237 17.266 5.76753L16 7.66667" stroke="#ABABAB" stroke-width="1.5" stroke-linecap="round" stroke-linejoin="round"/>
<path d="M24.333 16.0021L26.2322 14.7361C27.0173 14.2126 27.9895 14.0516 28.9015 14.2938C29.8135 14.536 30.5777 15.1581 30.9997 16.0021" stroke="#ABABAB" stroke-width="1.5" stroke-linecap="round" stroke-linejoin="round"/>
<path d="M27.6665 24.3333V25.1666" stroke="#ABABAB" stroke-width="1.5" stroke-linecap="round" stroke-linejoin="round"/>
<path d="M27.6665 31.0001V30.1667" stroke="#ABABAB" stroke-width="1.5" stroke-linecap="round" stroke-linejoin="round"/>
<path d="M31.0003 27.6666H30.167" stroke="#ABABAB" stroke-width="1.5" stroke-linecap="round" stroke-linejoin="round"/>
<path d="M24.333 27.6666H25.1663" stroke="#ABABAB" stroke-width="1.5" stroke-linecap="round" stroke-linejoin="round"/>
<path d="M27.6665 1V1.83333" stroke="#ABABAB" stroke-width="1.5" stroke-linecap="round" stroke-linejoin="round"/>
<path d="M27.6665 7.66659V6.83325" stroke="#ABABAB" stroke-width="1.5" stroke-linecap="round" stroke-linejoin="round"/>
<path d="M31.0003 4.33337H30.167" stroke="#ABABAB" stroke-width="1.5" stroke-linecap="round" stroke-linejoin="round"/>
<path d="M24.333 4.33337H25.1663" stroke="#ABABAB" stroke-width="1.5" stroke-linecap="round" stroke-linejoin="round"/>
<path d="M19.3335 12.6665L21.0002 10.9999" stroke="#ABABAB" stroke-width="1.5" stroke-linecap="round" stroke-linejoin="round"/>
</svg>
