<svg width="36" height="36" viewBox="0 0 36 36" fill="none" xmlns="http://www.w3.org/2000/svg">
<path d="M5.62771 5.48681C7.97642 5.78676 10.6789 5.94415 12.9264 4.83917C13.5598 4.52858 14.1598 4.11478 14.7394 3.7155C15.6083 3.11753 16.5065 2.49861 17.5412 2.20704C18.7704 1.8571 20.2183 1.96483 21.9655 2.53183C22.5347 2.71792 23.1018 2.93531 23.652 3.14463C24.4613 3.45522 25.2969 3.77581 26.1478 3.99319C27.3067 4.28701 28.1988 4.05512 28.9829 3.73517C25.8127 1.29139 22.0193 0 18.0005 0C13.1044 0 8.54151 1.92451 5.12488 5.42166L5.14971 5.42391C5.30926 5.44692 5.46859 5.46789 5.62771 5.48681Z" fill="#C5FF4A"/>
<path d="M5.88819 12.3917C8.04918 12.7001 10.5508 12.9794 12.855 12.3669C13.7387 12.1311 14.5912 11.7709 15.4191 11.349C16.2471 10.9272 17.0537 10.4459 17.8465 9.9728C19.9862 8.69592 22.2008 7.37582 24.7085 7.34066C26.0328 7.32196 27.3346 7.67158 28.5928 8.0112C29.6069 8.28438 30.657 8.56755 31.7095 8.65238C32.2629 8.69602 32.8193 8.68782 33.3712 8.62787C32.8689 7.80582 32.3019 7.02509 31.6756 6.2931C30.7725 6.22666 29.8588 6.11733 28.9731 6.0096C26.7666 5.74481 24.483 5.46776 22.2759 5.83834C21.0651 6.04315 19.8734 6.44469 18.7187 6.8314C17.4563 7.25584 16.1484 7.69641 14.8034 7.88283C12.2496 8.23245 9.6609 7.66964 7.01416 7.01363L6.94966 6.99718C6.07203 6.77786 5.16764 6.55209 4.26777 6.36599C2.8903 7.98365 1.81308 9.83449 1.08691 11.8312C2.45479 11.8847 3.83718 12.0892 5.17829 12.2863L5.88819 12.3917Z" fill="#C5FF4A"/>
<path d="M30.3757 30.5148C28.027 30.2149 25.3244 30.0575 23.077 31.1625C22.4439 31.4727 21.8436 31.8868 21.264 32.2861C20.3951 32.8841 19.4969 33.503 18.4622 33.7946C17.233 34.1445 15.7851 34.0368 14.0379 33.4698C13.4687 33.2856 12.8997 33.0663 12.3514 32.8551C11.5421 32.5448 10.7039 32.2242 9.85335 32.0068C8.69673 31.713 7.80492 31.9446 7.02051 32.2648C10.1907 34.7086 13.9841 36 18.0029 36C22.897 36 27.4619 34.0774 30.8785 30.5784L30.8517 30.5761C30.6924 30.5545 30.5331 30.5339 30.3757 30.5148Z" fill="#C5FF4A"/>
<path d="M30.1152 23.6127C27.9526 23.3025 25.4526 23.0231 23.1455 23.6356C22.2617 23.8695 21.4112 24.2336 20.5836 24.6535C19.7559 25.0734 18.9486 25.5566 18.1562 26.0297C16.0161 27.3066 13.8019 28.6267 11.2919 28.6619C9.96729 28.6783 8.66779 28.331 7.40958 27.9913C6.39553 27.7182 5.34535 27.435 4.29324 27.3498C3.73901 27.3065 3.18196 27.3148 2.62927 27.3747C3.13333 28.1969 3.70146 28.9781 4.32839 29.711C5.23149 29.7755 6.14524 29.8891 7.03092 29.9945C9.23675 30.2593 11.5174 30.5348 13.7255 30.1642C14.9382 29.9594 16.13 29.5578 17.2827 29.1711C18.5471 28.7467 19.855 28.3061 21.2003 28.122C23.7538 27.7701 26.3405 28.331 28.9892 28.9889L29.0537 29.0054C29.9313 29.2247 30.8357 29.4504 31.7359 29.6365C33.1126 28.0187 34.189 26.1679 34.9145 24.1713C33.5505 24.1175 32.1681 23.9133 30.8293 23.7163C30.5909 23.6801 30.3535 23.645 30.1152 23.6127Z" fill="#C5FF4A"/>
<path d="M35.9797 17.1222C35.9755 17.0254 35.9693 16.9287 35.9629 16.8319C35.9487 16.5878 35.9258 16.3375 35.8984 16.062C35.8568 15.6524 35.7949 15.2235 35.7162 14.7897C35.4732 13.4385 35.0754 12.1198 34.5305 10.8597C33.6632 10.6662 32.9017 10.5597 32.2024 10.5307C29.2029 10.4149 26.3936 11.7476 23.6762 13.0326C21.6049 14.0156 19.461 15.0296 17.2032 15.435C13.7369 16.0559 10.2148 15.2199 6.80852 14.413C6.05346 14.2349 5.27099 14.0488 4.50754 13.8831C3.13354 13.585 1.82566 13.397 0.617113 13.3202C0.229205 14.764 0.0228013 16.2505 0.00267973 17.7453C-4.58318e-05 17.7859 -0.00069364 17.8266 0.00074262 17.8672V17.9962C0.00074262 18.3068 0.0088065 18.5945 0.0213854 18.8758C0.0255784 18.9725 0.0317069 19.0693 0.0378351 19.166C0.0542844 19.4105 0.0752509 19.6627 0.103957 19.9359C0.145564 20.3458 0.205554 20.7719 0.284253 21.2086C0.526839 22.56 0.925364 23.8787 1.47183 25.1382C2.33688 25.3317 3.09838 25.4382 3.79797 25.4653C6.80078 25.5811 9.60878 24.2506 12.3239 22.9654C14.3975 21.9826 16.5414 20.9686 18.7972 20.5629C22.2632 19.942 25.7875 20.778 29.1938 21.5853C29.9489 21.7633 30.7291 21.9494 31.4948 22.1149C32.8691 22.4129 34.1767 22.6012 35.3852 22.6777C35.7738 21.2344 35.9797 19.7481 35.9981 18.2536L36 17.9991C36.0003 17.6892 35.9942 17.4015 35.9797 17.1222Z" fill="#C5FF4A"/>
</svg>
