<svg width="36" height="36" viewBox="0 0 36 36" fill="none" xmlns="http://www.w3.org/2000/svg">
<path d="M18.0001 0.70459C8.44775 0.70459 0.70459 8.44775 0.70459 18.0001C0.70459 27.5524 8.44775 35.2955 18.0001 35.2955C27.5524 35.2955 35.2955 27.5524 35.2955 18.0001C35.2955 8.44775 27.5524 0.70459 18.0001 0.70459Z" fill="url(#paint0_linear_58_45)"/>
<path d="M23.5303 5.59194C21.8411 4.8379 19.9695 4.4187 18.0001 4.4187C10.4993 4.4187 4.4187 10.4993 4.4187 18.0001C4.4187 25.5008 10.4993 31.5814 18.0001 31.5814C25.5008 31.5814 31.5814 25.5008 31.5814 18.0001C31.5814 14.772 30.4165 11.8378 28.5744 9.47656C26.6485 7.00789 23.5303 5.59194 23.5303 5.59194Z" fill="#C5FF4A"/>
<path d="M10.3946 7.43969C10.4796 7.06083 10.2414 6.68477 9.86257 6.59974C9.48371 6.5147 9.10765 6.7529 9.02262 7.13176C8.93758 7.51062 9.17578 7.88668 9.55464 7.97171C9.9335 8.05675 10.3096 7.81855 10.3946 7.43969Z" fill="black"/>
<path d="M0 18C0 22.8081 1.87228 27.3284 5.27196 30.728C8.67164 34.1277 13.1919 36 18 36C22.8081 36 27.3284 34.1277 30.728 30.728C34.1277 27.3284 36 22.8081 36 18C36 13.1919 34.1277 8.67164 30.728 5.27196C27.3284 1.87228 22.8081 0 18 0C13.1919 0 8.67164 1.87228 5.27196 5.27196C1.87228 8.67164 0 13.1919 0 18ZM1.40899 18C1.40899 13.5683 3.13474 9.40184 6.26829 6.26829C9.40184 3.13474 13.5683 1.40899 18 1.40899C22.4317 1.40899 26.5982 3.13474 29.7317 6.26829C32.8653 9.40184 34.591 13.5682 34.591 18C34.591 22.4318 32.8653 26.5982 29.7317 29.7317C26.5982 32.8653 22.4318 34.591 18 34.591C13.5682 34.591 9.40184 32.8653 6.26829 29.7317C3.13474 26.5982 1.40899 22.4317 1.40899 18Z" fill="black"/>
<path d="M6.8774 9.03403C7.12174 8.73126 7.56527 8.68387 7.8681 8.92828C8.17087 9.17261 8.21826 9.61614 7.97385 9.91898C6.13553 12.1968 5.1231 15.0666 5.1231 18C5.1231 25.1003 10.8997 30.8769 18 30.8769C25.1003 30.8769 30.8768 25.1003 30.8768 18C30.8768 10.8997 25.1003 5.1231 18 5.1231C16.174 5.1231 14.41 5.49724 12.7569 6.23517C12.4016 6.39379 11.985 6.23432 11.8265 5.87903C11.6679 5.52374 11.8273 5.10714 12.1826 4.94859C14.0176 4.12945 15.9749 3.71411 18 3.71411C25.8772 3.71411 32.2859 10.1227 32.2859 18C32.2859 25.8772 25.8772 32.2859 18 32.2859C10.1227 32.2859 3.71411 25.8772 3.71411 18C3.71411 14.7457 4.83749 11.5616 6.8774 9.03403Z" fill="black"/>
<path d="M18 6.6001C17.8932 6.60011 17.7877 6.62443 17.6916 6.67124C17.5955 6.71804 17.5113 6.78609 17.4454 6.87024L11.4573 14.5164C11.347 14.6573 11.2946 14.8349 11.3107 15.0131C11.2886 15.274 11.4127 15.5369 11.653 15.6793L17.6412 19.2253C17.8593 19.3547 18.141 19.3547 18.3591 19.2253L24.3472 15.6793C24.5878 15.5368 24.7119 15.2735 24.6895 15.0124C24.7054 14.8345 24.6529 14.6572 24.5429 14.5164L18.5547 6.87024C18.4888 6.78609 18.4046 6.71804 18.3085 6.67124C18.2124 6.62443 18.1069 6.60011 18 6.6001ZM18.7046 13.8767L22.449 15.1658L18.7046 17.3832V13.8767ZM17.2956 17.3832L13.5512 15.1658L17.2956 13.8766V17.3832ZM17.2956 9.34671V12.3865L14.036 13.5088L17.2956 9.34671ZM18.7046 12.3865V9.34686L21.9641 13.5087L18.7046 12.3865Z" fill="black"/>
<path d="M24.6916 18.5287C24.664 18.005 24.0719 17.6933 23.6233 17.9622L18.0001 21.2921L12.3757 17.9616C12.1187 17.8064 11.7802 17.8356 11.5527 18.0307C11.2962 18.2507 11.2338 18.6382 11.4079 18.9277L17.3933 29.0664C17.661 29.5197 18.3389 29.5197 18.6066 29.0664L24.591 18.9295C24.6634 18.8088 24.6984 18.6693 24.6916 18.5287ZM17.2956 26.1291L14.0128 20.5685L17.2956 22.5124L17.2956 26.1291ZM18.7046 22.5125L21.9872 20.5686L18.7046 26.1291V22.5125Z" fill="black"/>
<defs>
<linearGradient id="paint0_linear_58_45" x1="-0.651918" y1="-2.11093" x2="38.1989" y2="-1.31963" gradientUnits="userSpaceOnUse">
<stop stop-color="#C6F1F7"/>
<stop offset="0.364583" stop-color="#F983E9"/>
<stop offset="0.739583" stop-color="#B877FF"/>
<stop offset="1" stop-color="#C2E9CD"/>
</linearGradient>
</defs>
</svg>
