<svg width="24" height="25" viewBox="0 0 24 25" fill="none" xmlns="http://www.w3.org/2000/svg">
<path fill-rule="evenodd" clip-rule="evenodd" d="M24 12.0511C24 18.6902 18.6274 24.0723 12 24.0723C5.37258 24.0723 0 18.6902 0 12.0511C0 5.41204 5.37258 0.0299835 12 0.0299835C18.6274 0.0299835 24 5.41204 24 12.0511ZM17.1421 21.4524L21.3847 17.2023L19.3669 15.181C18.5576 17.0903 17.0303 18.6204 15.1243 19.4311L17.1421 21.4524ZM9.43295 19.6437C7.45322 18.9723 5.82115 17.5455 4.87848 15.7061L3.24264 17.3448L7.48528 21.5949L9.43295 19.6437ZM4.63306 8.92134C5.44238 7.01202 6.96974 5.48197 8.8757 4.67121L7.24264 3.03527L3 7.28539L4.63306 8.92134ZM15.6485 4.91707L17.3848 3.17766L21.6274 7.42778L19.5792 9.47957C18.909 7.49635 17.4847 5.8614 15.6485 4.91707Z" fill="#060710"/>
<mask id="mask0_52_475" style="mask-type:luminance" maskUnits="userSpaceOnUse" x="6" y="6" width="12" height="13">
<path d="M18 6.04056H6V18.0617H18V6.04056Z" fill="white"/>
</mask>
<g mask="url(#mask0_52_475)">
<path d="M12.0009 6.04056L11.9204 6.31451V14.263L12.0009 14.3436L15.684 12.1626L12.0009 6.04056Z" fill="#B7B7B7"/>
<path d="M12.0012 6.04056L8.31812 12.1626L12.0012 14.3436V10.4855V6.04056Z" fill="white"/>
<path d="M12.0034 15.0419L11.958 15.0973V17.9287L12.0034 18.0614L15.6888 12.8621L12.0034 15.0419Z" fill="#939090"/>
<path d="M12.0012 18.0614V15.0419L8.31812 12.8621L12.0012 18.0614Z" fill="white"/>
<path d="M12.0024 14.3435L15.6855 12.1625L12.0024 10.4854V14.3435Z" fill="#939090"/>
<path d="M8.31812 12.1625L12.0012 14.3435V10.4854L8.31812 12.1625Z" fill="#B1B1B1"/>
</g>
</svg>
