<svg width="24" height="25" viewBox="0 0 24 25" fill="none" xmlns="http://www.w3.org/2000/svg">
<path d="M11.48 0.968607C10.6328 1.00163 9.75777 1.13119 8.93088 1.34965C4.98161 2.39626 1.81864 5.40145 0.565631 9.29829C0.177552 10.5075 0 11.6582 0 12.9817C0 14.3053 0.177552 15.456 0.565631 16.6652C1.75016 20.3487 4.64426 23.2472 8.32213 24.4335C9.52949 24.8221 10.6785 25 12 25C13.3215 25 14.4705 24.8221 15.6779 24.4335C19.3557 23.2472 22.2498 20.3487 23.4344 16.6652C23.8224 15.456 24 14.3053 24 12.9817C24 11.6582 23.8224 10.5075 23.4344 9.29829C21.9404 4.65714 17.7679 1.35473 12.9385 0.99401C12.449 0.955905 12.0025 0.948284 11.48 0.968607ZM11.721 5.88919V8.1958L11.5257 8.22374C11.2162 8.26947 10.8966 8.37362 10.5923 8.5235C9.61065 9.01124 8.94103 9.97402 8.83196 11.0537C8.81928 11.1807 8.79899 11.2924 8.78884 11.3051C8.76094 11.3331 6.38681 12.3213 6.37413 12.3111C6.37159 12.306 6.64807 11.8437 6.99049 11.2848C7.33291 10.7259 7.61192 10.2585 7.61192 10.2484C7.61192 10.2357 7.00824 9.61837 6.2676 8.87914C5.52949 8.13991 4.92327 7.52261 4.92327 7.50737C4.92327 7.49467 5.28599 7.11871 5.72733 6.67669L6.53393 5.86887L7.70323 7.03996L8.87254 8.21104L10.2904 5.89681C11.0691 4.62412 11.7108 3.58259 11.7134 3.58259C11.7185 3.58259 11.721 4.62158 11.721 5.88919ZM13.7273 5.90444L15.1325 8.20342L16.2993 7.03487L17.4661 5.86887L18.2854 6.68685L19.1021 7.50737L17.74 8.87152L16.3805 10.2331L17.0171 11.2721C17.3646 11.8411 17.6487 12.3111 17.6462 12.3162C17.6411 12.3187 17.0932 12.0952 16.4236 11.8157L15.2086 11.3102L15.1807 11.0486C15.0184 9.61329 13.9581 8.47777 12.5529 8.23644L12.3044 8.19326V5.9019C12.3044 4.63936 12.3094 3.60799 12.3145 3.60799C12.3196 3.60799 12.9537 4.6419 13.7273 5.90444ZM12.52 9.47612C13.0298 9.63362 13.3748 10.0248 13.4128 10.4872L13.428 10.6701H13.0476H12.6671L12.6519 10.5812C12.6164 10.3576 12.4413 10.223 12.1446 10.1874C11.7235 10.1366 11.3405 10.3068 11.3405 10.5456C11.3405 10.7158 11.4826 10.8022 12.1167 11.013C12.7762 11.2315 13.0679 11.3941 13.2657 11.6532C13.4737 11.9224 13.5067 12.339 13.3469 12.6642C13.1287 13.1062 12.6493 13.3603 12.0304 13.3628C11.4166 13.3628 10.9347 13.1088 10.7191 12.6667C10.6709 12.5677 10.6176 12.4254 10.6049 12.3492C10.5593 12.0977 10.5263 12.118 10.9727 12.118H11.3659V12.1917C11.3659 12.2806 11.4547 12.4178 11.5612 12.4889C11.7286 12.6007 12.0888 12.6261 12.3576 12.5474C12.4997 12.5042 12.6848 12.3289 12.6848 12.2374C12.6848 12.0698 12.4845 11.9504 11.8478 11.7395C11.2949 11.5541 11.0615 11.4347 10.8561 11.2315C10.6405 11.0155 10.572 10.853 10.572 10.543C10.5694 10.2814 10.6278 10.1137 10.7926 9.90543C10.9753 9.67172 11.305 9.48882 11.655 9.42531C11.8656 9.3872 12.3171 9.41515 12.52 9.47612ZM8.90552 12.1358C9.15916 13.2053 9.97337 14.0842 11.0235 14.4272C11.1503 14.4678 11.3431 14.5136 11.4547 14.5313C11.5663 14.5491 11.6728 14.5669 11.6906 14.572C11.7134 14.5796 11.721 14.7701 11.721 15.4204V16.2613L11.6601 16.2283C11.5003 16.1419 6.32086 12.9919 6.31833 12.9817C6.31833 12.9665 8.83703 11.9148 8.84971 11.9275C8.85479 11.9301 8.87762 12.024 8.90552 12.1358ZM16.4363 12.4432C17.6538 12.9513 17.707 12.9767 17.6512 13.0122C17.6183 13.0326 16.4287 13.7565 15.0057 14.6202C13.5828 15.484 12.3932 16.2079 12.3627 16.2283L12.3044 16.2638V15.4154V14.5669L12.5149 14.539C13.2784 14.4348 14.0647 13.9598 14.5491 13.3145C14.8256 12.9487 15.0793 12.3899 15.1325 12.0342C15.1427 11.9682 15.1528 11.9148 15.1579 11.9148C15.1604 11.9148 15.7362 12.1536 16.4363 12.4432ZM9.15155 16.3908L11.7185 17.9481L11.721 20.1048C11.721 21.2911 11.7159 22.2564 11.7108 22.2514C11.7083 22.2463 11.2543 21.6061 10.7064 20.8313C10.156 20.0565 9.66392 19.3605 9.60812 19.2843L9.50919 19.1496L8.35764 20.3004L7.20609 21.4537L6.39442 20.6408L5.58275 19.8279L6.86874 18.54C8.1116 17.2952 8.15472 17.2469 8.12175 17.1936C8.08624 17.1377 6.63031 15.075 6.44769 14.826L6.35637 14.699L6.47051 14.7676C6.53393 14.8057 7.73874 15.5348 9.15155 16.3908ZM16.7432 15.9819L15.8554 17.2368L17.1414 18.5247L18.4299 19.8152L17.6107 20.6332L16.7939 21.4537L15.6449 20.3029L14.4984 19.1547L13.4331 20.656C12.8472 21.4816 12.3551 22.1777 12.3373 22.2005C12.312 22.2336 12.3069 21.7865 12.3044 20.0921V17.9455L14.9626 16.3324C16.4236 15.4433 17.6208 14.7193 17.6259 14.7219C17.6309 14.7269 17.2327 15.2934 16.7432 15.9819Z" fill="#060710"/>
</svg>
