<svg width="24" height="24" viewBox="0 0 24 24" fill="none" xmlns="http://www.w3.org/2000/svg">
<path fill-rule="evenodd" clip-rule="evenodd" d="M24 12C24 18.6274 18.6274 24 12 24C5.37258 24 0 18.6274 0 12C0 5.37258 5.37258 0 12 0C18.6274 0 24 5.37258 24 12ZM17.1421 21.3847L21.3847 17.1421L19.3669 15.1243C18.5576 17.0303 17.0303 18.5576 15.1243 19.3669L17.1421 21.3847ZM9.43295 19.5792C7.45322 18.909 5.82115 17.4847 4.87848 15.6485L3.24264 17.2843L7.48528 21.5269L9.43295 19.5792ZM4.63306 8.8757C5.44238 6.96974 6.96974 5.44238 8.8757 4.63306L7.24264 3L3 7.24264L4.63306 8.8757ZM15.6485 4.87848L17.3848 3.14214L21.6274 7.38478L19.5792 9.43295C18.909 7.45322 17.4847 5.82115 15.6485 4.87848Z" fill="#EFEFE5"/>
<mask id="mask0_46_676" style="mask-type:luminance" maskUnits="userSpaceOnUse" x="6" y="6" width="12" height="12">
<path d="M18 6H6V18H18V6Z" fill="white"/>
</mask>
<g mask="url(#mask0_46_676)">
<path d="M12.0007 6L11.9202 6.27347V14.208L12.0007 14.2884L15.6837 12.1112L12.0007 6Z" fill="#B7B7B7"/>
<path d="M12.001 6L8.31787 12.1112L12.001 14.2884V10.4371V6Z" fill="#36394C"/>
<path d="M12.0032 14.9855L11.9578 15.0408V17.8671L12.0032 17.9996L15.6885 12.8095L12.0032 14.9855Z" fill="#939090"/>
<path d="M12.001 17.9996V14.9855L8.31787 12.8095L12.001 17.9996Z" fill="#36394C"/>
<path d="M12.0022 14.2883L15.6852 12.1111L12.0022 10.437V14.2883Z" fill="#939090"/>
<path d="M8.31787 12.1111L12.001 14.2883V10.437L8.31787 12.1111Z" fill="#B1B1B1"/>
</g>
</svg>
