<svg width="26" height="26" viewBox="0 0 26 26" fill="none" xmlns="http://www.w3.org/2000/svg">
<path d="M24.8 12.9245C24.8 6.34073 19.4722 1.00352 12.9 1.00352C6.32781 1.00352 1 6.34073 1 12.9245C1 19.5083 6.32781 24.8455 12.9 24.8455C19.4722 24.8455 24.8 19.5083 24.8 12.9245Z" fill="#EFEFE5"/>
<path d="M24.8 12.9245C24.8 6.34073 19.4722 1.00352 12.9 1.00352C6.32781 1.00352 1 6.34073 1 12.9245C1 19.5083 6.32781 24.8455 12.9 24.8455C19.4722 24.8455 24.8 19.5083 24.8 12.9245Z" stroke="#474747" stroke-width="1.2"/>
<mask id="mask0_52_507" style="mask-type:luminance" maskUnits="userSpaceOnUse" x="4" y="4" width="18" height="18">
<path d="M21.2508 4.55893H4.54907V21.2901H21.2508V4.55893Z" fill="white"/>
</mask>
<g mask="url(#mask0_52_507)">
<path d="M12.898 4.55888L12.7859 4.94017V16.0031L12.898 16.1151L18.0241 13.0797L12.898 4.55888Z" fill="#343434"/>
<path d="M12.8965 4.55893L7.77026 13.0797L12.8965 16.1152V10.7455V4.55893Z" fill="#8C8C8C"/>
<path d="M12.8979 17.0858L12.8347 17.163V21.1038L12.8979 21.2885L18.0272 14.0519L12.8979 17.0858Z" fill="#3C3C3B"/>
<path d="M12.8965 21.2885V17.0858L7.77026 14.0519L12.8965 21.2885Z" fill="#8C8C8C"/>
<path d="M12.8999 16.1169L18.0261 13.0815L12.8999 10.7473V16.1169Z" fill="#141414"/>
<path d="M7.77026 13.0815L12.8965 16.1169V10.7473L7.77026 13.0815Z" fill="#393939"/>
</g>
</svg>
