<svg width="29" height="29" viewBox="0 0 29 29" fill="none" xmlns="http://www.w3.org/2000/svg">
<path d="M17.6514 6.88508L23.0467 4.31497L21.4526 10.0746L21.317 10.5645L21.809 10.692L27.5941 12.1912L22.6707 15.5787L22.2519 15.8668L22.5469 16.2807L26.0148 21.1478L20.0658 20.578L19.5599 20.5295L19.5197 21.0362L19.0479 26.9938L14.8569 22.7334L14.5005 22.371L14.144 22.7334L9.95312 26.9938L9.48124 21.0362L9.4411 20.5295L8.93513 20.578L2.98615 21.1478L6.4541 16.2807L6.74906 15.8668L6.33031 15.5787L1.40686 12.1912L7.19196 10.692L7.684 10.5645L7.54841 10.0746L5.95423 4.31497L11.3496 6.88508L11.8084 7.10367L12.0195 6.64125L14.5005 1.20438L16.9815 6.64125L17.1925 7.10367L17.6514 6.88508Z" stroke="white"/>
</svg>
